<svg xmlns="http://www.w3.org/2000/svg" viewBox="0 0 500 500"><g id="freepik--background-simple--inject-2"><path d="M415.25,195.83A87.13,87.13,0,0,0,249.59,158,87.13,87.13,0,0,0,83.93,195.82c0,55,61.61,107,104.17,134.81,44.7,29.23,65.33,51.58,65.33,51.58s29.23-37.82,68.78-58.46C364.93,301.46,415.25,246.79,415.25,195.83Z" style="fill:#E83F6F"></path><path d="M415.25,195.83A87.13,87.13,0,0,0,249.59,158,87.13,87.13,0,0,0,83.93,195.82c0,55,61.61,107,104.17,134.81,44.7,29.23,65.33,51.58,65.33,51.58s29.23-37.82,68.78-58.46C364.93,301.46,415.25,246.79,415.25,195.83Z" style="fill:#fff;opacity:0.7000000000000001"></path><path d="M392.85,163.23c-3.72-2-5.41-.34-6.76-2s3.72-6.08-6.42-10.47c0,0-.67-9.46-14.53-9.8s-10.14,9.46-13.85,11.82-4.73-1.35-8.45,1-2,7.1-5.07,7.77-7.1-3-10.81-.67-3.72,4.39-5.41,4.39-5.07-1.35-7.1,0-4.39,3-4.39,3h85.5S396.57,165.26,392.85,163.23Z" style="fill:#fff"></path><path d="M179.7,225.85c-3.72-2-5.41-.34-6.76-2s3.72-6.08-6.42-10.47c0,0-.67-9.46-14.53-9.8s-10.14,9.46-13.85,11.82-4.73-1.35-8.45,1-2,7.1-5.07,7.77-7.1-3-10.81-.67-3.72,4.39-5.41,4.39-5.07-1.35-7.1,0-4.39,3-4.39,3H182.4S183.42,227.88,179.7,225.85Z" style="fill:#fff"></path><path d="M135.05,202c-2.17-1.18-3.15-.19-3.93-1.18s2.16-3.53-3.74-6.09c0,0-.39-5.5-8.45-5.69s-5.89,5.5-8.05,6.87-2.75-.78-4.91.59-1.18,4.13-3,4.52-4.13-1.77-6.29-.39-2.16,2.55-3.14,2.55-3-.78-4.13,0-2.55,1.77-2.55,1.77h49.71S137.21,203.15,135.05,202Z" style="fill:#fff"></path></g><g id="freepik--Hearts--inject-2"><path d="M279.45,112.89a3.88,3.88,0,0,0-7.39-1.69,3.89,3.89,0,0,0-7.4,1.69c0,2.45,2.75,4.77,4.65,6a16.73,16.73,0,0,1,2.92,2.31,10.67,10.67,0,0,1,3.07-2.61C277.2,117.6,279.45,115.16,279.45,112.89Z" style="fill:#E83F6F"></path><path d="M279.45,112.89a3.88,3.88,0,0,0-7.39-1.69,3.89,3.89,0,0,0-7.4,1.69c0,2.45,2.75,4.77,4.65,6a16.73,16.73,0,0,1,2.92,2.31,10.67,10.67,0,0,1,3.07-2.61C277.2,117.6,279.45,115.16,279.45,112.89Z" style="fill:#fff;opacity:0.4"></path><path d="M255.71,96.83a2.16,2.16,0,0,0-4.11-.94,2.16,2.16,0,0,0-4.11.94c0,1.36,1.53,2.65,2.58,3.34a9.59,9.59,0,0,1,1.63,1.29,6,6,0,0,1,1.7-1.46A4.26,4.26,0,0,0,255.71,96.83Z" style="fill:#E83F6F"></path><path d="M255.71,96.83a2.16,2.16,0,0,0-4.11-.94,2.16,2.16,0,0,0-4.11.94c0,1.36,1.53,2.65,2.58,3.34a9.59,9.59,0,0,1,1.63,1.29,6,6,0,0,1,1.7-1.46A4.26,4.26,0,0,0,255.71,96.83Z" style="fill:#fff;opacity:0.4"></path><path d="M238.22,109.69a2.17,2.17,0,0,0-4.12-.94,2.16,2.16,0,0,0-4.11.94c0,1.37,1.53,2.66,2.59,3.35a8.93,8.93,0,0,1,1.62,1.28,6,6,0,0,1,1.71-1.45A4.28,4.28,0,0,0,238.22,109.69Z" style="fill:#E83F6F"></path><path d="M238.22,109.69a2.17,2.17,0,0,0-4.12-.94,2.16,2.16,0,0,0-4.11.94c0,1.37,1.53,2.66,2.59,3.35a8.93,8.93,0,0,1,1.62,1.28,6,6,0,0,1,1.71-1.45A4.28,4.28,0,0,0,238.22,109.69Z" style="fill:#fff;opacity:0.4"></path></g><g id="freepik--Floor--inject-2"><ellipse cx="246.16" cy="409.61" rx="126.52" ry="13.69" style="fill:#E83F6F"></ellipse><ellipse cx="246.16" cy="409.61" rx="126.52" ry="13.69" style="fill:#fff;opacity:0.5"></ellipse></g><g id="freepik--Trees--inject-2"><path d="M134.25,390.23h35.93c-.69-4.39-3.52-3.62-3.89-10.43-.19-3.43,3-7.67,2.71-12.18-.23-3.71-3.89-7.52-4.17-11.76-.26-3.83,2.87-8.08,2.56-12.21-.28-3.91-4-7.65-4.32-11.71s2.74-8.25,2.38-12.25-4.14-7.68-4.54-11.63,2.55-8.42,2.1-12.3c-.48-4.12-4.37-7.68-4.9-11.47-.59-4.23,2.17-8.74,1.52-12.39-.79-4.47-4.95-7.71-5.82-11-1.63-6.15-1.43-12.07-3.36-12.46s-2.52,5.4-4.08,11.89c-.78,3.26-4.85,6.56-5.52,11-.54,3.63,2.34,8,1.86,12.24-.42,3.77-4.21,7.39-4.58,11.49-.34,3.85,2.73,8.1,2.43,12.13s-4,7.65-4.22,11.63,2.91,8.15,2.7,12.07-3.84,7.83-4,11.7c-.2,4.1,3,8.23,2.88,12-.17,4.21-3.74,8.07-3.87,11.75-.15,4.47,3.13,8.6,3,12-.22,7.38-3.61,5.85-3.73,11.8Z" style="fill:#E83F6F"></path><line x1="149.67" y1="260.25" x2="149.67" y2="388.57" style="fill:none;stroke:#263238;stroke-miterlimit:10;stroke-width:0.75px"></line><polyline points="155.28 273.7 149.43 278.76 144.64 272.38" style="fill:none;stroke:#263238;stroke-miterlimit:10;stroke-width:0.75px"></polyline><polyline points="155.28 296.04 149.43 301.09 144.64 294.71" style="fill:none;stroke:#263238;stroke-miterlimit:10;stroke-width:0.75px"></polyline><polyline points="155.28 317.05 149.43 322.1 144.64 315.72" style="fill:none;stroke:#263238;stroke-miterlimit:10;stroke-width:0.75px"></polyline><polyline points="155.28 342.04 149.43 347.09 144.64 340.71" style="fill:none;stroke:#263238;stroke-miterlimit:10;stroke-width:0.75px"></polyline><polyline points="155.28 367.3 149.43 372.35 144.64 365.97" style="fill:none;stroke:#263238;stroke-miterlimit:10;stroke-width:0.75px"></polyline><path d="M109.77,390.23h27.74c-.54-3.39-2.72-2.79-3-8.05-.15-2.65,2.3-5.92,2.09-9.4-.18-2.87-3-5.8-3.22-9.08-.2-3,2.21-6.24,2-9.43-.22-3-3.09-5.9-3.34-9s2.11-6.37,1.84-9.46-3.2-5.93-3.51-9,2-6.5,1.62-9.5c-.37-3.18-3.37-5.93-3.78-8.86-.45-3.26,1.68-6.74,1.18-9.56-.61-3.45-3.82-5.95-4.5-8.49-1.26-4.75-1.1-9.32-2.59-9.62s-2,4.17-3.15,9.18c-.6,2.51-3.74,5.06-4.26,8.52-.42,2.79,1.8,6.19,1.44,9.44-.33,2.91-3.25,5.71-3.54,8.87-.26,3,2.11,6.25,1.88,9.36s-3.07,5.91-3.27,9,2.26,6.29,2.09,9.32-3,6-3.1,9c-.15,3.16,2.34,6.35,2.22,9.29-.13,3.25-2.88,6.23-3,9.07-.12,3.45,2.41,6.63,2.33,9.26-.17,5.7-2.78,4.52-2.87,9.1Z" style="fill:#E83F6F"></path><line x1="121.68" y1="289.9" x2="121.68" y2="388.95" style="fill:none;stroke:#263238;stroke-miterlimit:10;stroke-width:0.75px"></line><polyline points="126.01 300.28 121.49 304.18 117.8 299.26" style="fill:none;stroke:#263238;stroke-miterlimit:10;stroke-width:0.75px"></polyline><polyline points="126.01 317.52 121.49 321.42 117.8 316.5" style="fill:none;stroke:#263238;stroke-miterlimit:10;stroke-width:0.75px"></polyline><polyline points="126.01 333.74 121.49 337.64 117.8 332.71" style="fill:none;stroke:#263238;stroke-miterlimit:10;stroke-width:0.75px"></polyline><polyline points="126.01 353.03 121.49 356.93 117.8 352.01" style="fill:none;stroke:#263238;stroke-miterlimit:10;stroke-width:0.75px"></polyline><polyline points="126.01 372.53 121.49 376.43 117.8 371.5" style="fill:none;stroke:#263238;stroke-miterlimit:10;stroke-width:0.75px"></polyline><path d="M343.73,390.23h34.8c-.67-4.26-3.4-3.51-3.77-10.1-.18-3.32,2.9-7.44,2.63-11.8-.22-3.59-3.76-7.28-4-11.39-.25-3.71,2.78-7.83,2.48-11.83-.27-3.78-3.87-7.41-4.18-11.34s2.65-8,2.3-11.87-4-7.44-4.39-11.26,2.46-8.15,2-11.91c-.46-4-4.23-7.44-4.74-11.11-.57-4.1,2.1-8.47,1.48-12-.77-4.33-4.8-7.46-5.64-10.65-1.58-5.95-1.39-11.69-3.25-12.06s-2.45,5.22-4,11.51c-.76,3.15-4.7,6.35-5.35,10.69-.52,3.5,2.27,7.77,1.81,11.85-.41,3.65-4.08,7.16-4.44,11.13-.33,3.73,2.65,7.84,2.35,11.75s-3.84,7.41-4.09,11.26,2.83,7.89,2.62,11.7-3.71,7.58-3.89,11.33c-.19,4,2.94,8,2.79,11.65-.17,4.08-3.62,7.82-3.75,11.38-.15,4.33,3,8.33,2.93,11.62-.21,7.15-3.49,5.67-3.61,11.43Z" style="fill:#E83F6F"></path><line x1="358.67" y1="264.34" x2="358.67" y2="388.62" style="fill:none;stroke:#263238;stroke-miterlimit:10;stroke-width:0.75px"></line><polyline points="364.1 277.37 358.44 282.26 353.8 276.08" style="fill:none;stroke:#263238;stroke-miterlimit:10;stroke-width:0.75px"></polyline><polyline points="364.1 299 358.44 303.89 353.8 297.71" style="fill:none;stroke:#263238;stroke-miterlimit:10;stroke-width:0.75px"></polyline><polyline points="364.1 319.34 358.44 324.24 353.8 318.06" style="fill:none;stroke:#263238;stroke-miterlimit:10;stroke-width:0.75px"></polyline><polyline points="364.1 343.55 358.44 348.45 353.8 342.27" style="fill:none;stroke:#263238;stroke-miterlimit:10;stroke-width:0.75px"></polyline><polyline points="364.1 368.02 358.44 372.91 353.8 366.73" style="fill:none;stroke:#263238;stroke-miterlimit:10;stroke-width:0.75px"></polyline><path d="M320,390.23h26.87c-.52-3.29-2.63-2.71-2.91-7.8-.14-2.56,2.23-5.74,2-9.1-.17-2.78-2.91-5.62-3.12-8.8-.19-2.86,2.14-6,1.92-9.13-.22-2.92-3-5.72-3.24-8.75s2.05-6.17,1.78-9.16-3.09-5.74-3.39-8.69,1.9-6.3,1.56-9.2c-.35-3.08-3.26-5.74-3.65-8.58-.44-3.16,1.61-6.53,1.13-9.26-.59-3.35-3.7-5.76-4.35-8.23-1.22-4.59-1.07-9-2.51-9.31s-1.89,4-3.05,8.89c-.59,2.43-3.63,4.9-4.13,8.25-.41,2.71,1.75,6,1.39,9.15-.31,2.81-3.15,5.52-3.42,8.59-.26,2.88,2,6,1.81,9.07s-3,5.72-3.16,8.69,2.18,6.09,2,9-2.86,5.85-3,8.75c-.15,3.06,2.27,6.15,2.15,9-.13,3.15-2.79,6-2.89,8.79-.12,3.34,2.34,6.42,2.26,9-.16,5.53-2.69,4.38-2.78,8.83Z" style="fill:#E83F6F"></path><line x1="331.55" y1="293.05" x2="331.55" y2="388.99" style="fill:none;stroke:#263238;stroke-miterlimit:10;stroke-width:0.75px"></line><polyline points="335.75 303.11 331.37 306.88 327.8 302.11" style="fill:none;stroke:#263238;stroke-miterlimit:10;stroke-width:0.75px"></polyline><polyline points="335.75 319.81 331.37 323.58 327.8 318.81" style="fill:none;stroke:#263238;stroke-miterlimit:10;stroke-width:0.75px"></polyline><polyline points="335.75 335.51 331.37 339.29 327.8 334.52" style="fill:none;stroke:#263238;stroke-miterlimit:10;stroke-width:0.75px"></polyline><polyline points="335.75 354.2 331.37 357.98 327.8 353.21" style="fill:none;stroke:#263238;stroke-miterlimit:10;stroke-width:0.75px"></polyline><polyline points="335.75 373.09 331.37 376.86 327.8 372.09" style="fill:none;stroke:#263238;stroke-miterlimit:10;stroke-width:0.75px"></polyline></g><g id="freepik--Characters--inject-2"><path d="M223,252.25S224.25,270,225,278s1.75,15,2,20a36.9,36.9,0,0,1-4.25,18c-3.25,6.25-5.25,15-3.75,22.75s2,17.5,1,20.75-8.5,8.25-7.5,12,5,3.75,7,8.25,9.75,11.5,11.75,10-1.25-6.5-2.5-12.75-1.5-19-.5-23.75,9-34.5,10.5-39.75,6.5-16,7-33.5.5-27,.5-27Z" style="fill:#fff;stroke:#263238;stroke-linecap:round;stroke-linejoin:round"></path><path d="M265.88,137.75a4.52,4.52,0,0,0,3.49-3.48c.45-2.88-2.58-10.61-7-15.31s-14.25-5.31-21.83-1.82-8.49,8.94-11.21,14.1-14.63,46.48-19.63,55-20,21.78-15,36.75c4,12,13.53,13,20.2,13s10.61-7.13,12.58-11.82,6.06-20.16,6.06-27.74,1.36-22.89,4.7-29.4,12.58-22.89,14.55-25,10.76-6.07,10.76-6.07Z" style="fill:#E83F6F;stroke:#263238;stroke-linecap:round;stroke-linejoin:round"></path><path d="M249.36,140.78s-20,8.58-29.29,25.85-19,56.05-17.84,66.24" style="fill:none;stroke:#263238;stroke-linecap:round;stroke-linejoin:round"></path><path d="M231.39,152.76s-25.48,49.82-20.1,82.65" style="fill:none;stroke:#263238;stroke-linecap:round;stroke-linejoin:round"></path><path d="M221.2,155a35.54,35.54,0,0,1,16.7-15.57c12.17-5.66,25.48-9.91,25.48-15.85" style="fill:none;stroke:#263238;stroke-linecap:round;stroke-linejoin:round"></path><polygon points="242.84 152.76 237.84 162 249.36 163.52 251.94 156.55 242.84 152.76" style="fill:#fff;stroke:#263238;stroke-linecap:round;stroke-linejoin:round"></polygon><path d="M265.12,130.93s1.37,4.85.91,7.88-1.06,5.31-.91,6.22,1.82,2.12.76,3a10.8,10.8,0,0,1-2.57,1.52s-2.58,5.3-3.94,7.42a7.4,7.4,0,0,1-6.37,3.19c-2.58,0-10.16-7.43-10.16-7.43l6.52-12S261.94,135.33,265.12,130.93Z" style="fill:#fff;stroke:#263238;stroke-linecap:round;stroke-linejoin:round"></path><path d="M263,142.3l-.3,2.12a2.26,2.26,0,0,1-2-.76" style="fill:none;stroke:#263238;stroke-linecap:round;stroke-linejoin:round"></path><path d="M259.21,151.39a4.38,4.38,0,0,1-2.88-2.27" style="fill:none;stroke:#263238;stroke-linecap:round;stroke-linejoin:round"></path><path d="M260.43,140.18s1.36-2.43,2.88-1.52" style="fill:none;stroke:#263238;stroke-linecap:round;stroke-linejoin:round"></path><path d="M229.36,189.29s-4.4,1.51-7.89,8,2.13,9.55,5.91,8.18S237.54,192.92,229.36,189.29Z" style="fill:#fff;stroke:#263238;stroke-linecap:round;stroke-linejoin:round"></path><path d="M221.76,251.83s1.58,16.22,4.1,26.46a134.27,134.27,0,0,0,5.47,17.38s-13.66-5-26.1-6.82c-10.07-1.48-26-8.82-27.73-9.14s-4.09-8.35-5.51-9.29-7.56-.79-13.07.63-12.45,2.67-14.5,4.09-1.1,2.68,1,3a65.25,65.25,0,0,1,14,3.79c5.67,2.36,24.41,9.13,28.19,10.71s27.1,12.6,34.18,15.91,17.17,9.13,21.58,8.34,6.78-9,6.46-13.23-1.26-48.2-1.1-49.61S221.76,251.83,221.76,251.83Z" style="fill:#fff;stroke:#263238;stroke-linecap:round;stroke-linejoin:round"></path><path d="M231.33,295.67s5,1.33,6.34,6" style="fill:none;stroke:#263238;stroke-linecap:round;stroke-linejoin:round"></path><path d="M231.93,162.91s-4.09,7.73-3.64,15.61,1.37,22.89.31,28.5-4.55,12.28-5.31,13.79-7,6.52-7.27,13.95,3.48,15.91,3.48,15.91v3.49a48.58,48.58,0,0,0,13.95,2A78.85,78.85,0,0,0,248,254.76l5.3-35.16L256,197.77s5.91-14.55,5.15-19.55-3.63-12.58-8-15.31S237.09,156.55,231.93,162.91Z" style="fill:#fff;stroke:#263238;stroke-linecap:round;stroke-linejoin:round"></path><path d="M231.93,162.91s-4.09,7.73-3.64,15.61c.2,3.45.49,8.25.66,13,6.2-1.62,13.72-5.11,15.31-12.6a36.36,36.36,0,0,0-1.65-19.48C238.57,159.08,234.46,159.79,231.93,162.91Z" style="fill:#fff;stroke:#263238;stroke-linecap:round;stroke-linejoin:round"></path><path d="M233.45,256.13A78.85,78.85,0,0,0,248,254.76l4.28-28.35c-15,2.23-25-3.77-28.55-6.48-.18.38-.34.68-.44.88-.76,1.52-7,6.52-7.27,13.95s3.48,15.91,3.48,15.91v3.49A48.58,48.58,0,0,0,233.45,256.13Z" style="fill:#263238;stroke:#263238;stroke-linecap:round;stroke-linejoin:round"></path><path d="M296.5,161.85a7.77,7.77,0,0,1,5.91,3c2.12,3,2,8-1.21,9.1s-5.61,1.21-8.79-1.82-1-8.55.75-9.55A5.62,5.62,0,0,1,296.5,161.85Z" style="fill:#fff;stroke:#263238;stroke-linecap:round;stroke-linejoin:round"></path><path d="M283.31,134.72s-2.57-3.33-.91-5.61,8.34-4.69,11.83-3.78,12.27,8.94,14.39,17.27-2.27,11.83-6.21,13.8a102.13,102.13,0,0,1-10.91,4.69c-.46,0-5-2.72-6.52-5.75s-2.12-8.34-1.21-9.25,3.18-2.12,2-4.09-3-3.34-2.28-4.7A2.47,2.47,0,0,0,283.31,134.72Z" style="fill:#263238;stroke:#263238;stroke-linecap:round;stroke-linejoin:round"></path><path d="M264.5,376.33s-2.83,17.67-4.17,19.5-14.66,5.84-17,7-2,3.34.5,3.5,17.5.84,21.84.84,10.33,2,11.66.66S276.5,399,276,392.5a110.49,110.49,0,0,1,.5-16Z" style="fill:#fff;stroke:#263238;stroke-linecap:round;stroke-linejoin:round"></path><path d="M262.83,398a4,4,0,0,0-2.45-2.26.26.26,0,0,1-.05.09c-1.33,1.84-14.66,5.84-17,7s-2,3.34.5,3.5,17.5.84,21.84.84,10.33,2,11.66.66c.81-.81.33-3.89-.28-7.64-2.57.72-5.31,1.64-7.22,1.64C265.33,401.83,264.33,401,262.83,398Z" style="fill:#263238;stroke:#263238;stroke-linecap:round;stroke-linejoin:round"></path><path d="M242.05,403.88c-.73,1.11-.07,2.33,1.78,2.45,2.5.17,17.5.84,21.84.84s10.33,2,11.66.66a2.84,2.84,0,0,0,.42-1.95c-6.09,0-15.72-.27-22.42-.38A53.64,53.64,0,0,1,242.05,403.88Z" style="fill:#fff;stroke:#263238;stroke-linecap:round;stroke-linejoin:round"></path><path d="M254.06,309.17s4.09,18.65,5.76,25.16,3,30.62,3.49,37.59-.46,21.07-1.06,23.19-11.52,8.79-15.16,10.31-6.22,2.73-5.91,4.39,12.43,4.25,19.7,3.94,11.37-2.57,14.85-2.88,4.7-1.36,4.7-5.6-3.18-7-3.48-17.28a221.16,221.16,0,0,1,1.21-27.43c.61-5.76,3.64-11.22.45-22.59s-5.76-13.49-6.06-17-1.36-13.64-1.36-13.64Z" style="fill:#fff;stroke:#263238;stroke-linecap:round;stroke-linejoin:round"></path><path d="M248.3,256.73s-.91,22.28-.3,30.77,3.94,20.16,3.94,20.16,10.76,1.06,16.52-.61,7.27-3.18,7.27-3.18l-.3-30.92s5.15-6.82,7.12-11.67a20.07,20.07,0,0,0,1.52-8.94A29.24,29.24,0,0,0,270.73,241C261.64,237.18,251.94,247.34,248.3,256.73Z" style="fill:#263238;stroke:#263238;stroke-linecap:round;stroke-linejoin:round"></path><path d="M261.94,254.91s-2.73,20.62-1.82,34.41" style="fill:none;stroke:#fff;stroke-linecap:round;stroke-linejoin:round"></path><path d="M249.36,247.18l-1.82,13,20.77-10.61,22.88,11.82s-5.15-16.06-5.6-17.28S280,235.21,272,234.91,249.36,247.18,249.36,247.18Z" style="fill:#fff;stroke:#263238;stroke-linecap:round;stroke-linejoin:round"></path><path d="M264.82,176.1s-34.1,15.91-38.95,20.31-7.73,13.19-5.76,16.22,5.15,2.27,9.85,1.21,16.22-7.73,21.07-9.25,3.18-1.36,3.18-1.36-4.39,32.89-4.85,41.68-.6,7.12-.6,7.12S265,241,269.82,240.21s18.65,9.7,18.65,9.7-1.67-8.49-2.73-13.49a49.59,49.59,0,0,1-1.06-9.7c0-.45,8.79-24.4,8.79-24.4s-.61,8.49,1.66,7.73,11.22-19.25,11.68-23.34-12-13.19-12-13.19a4.24,4.24,0,0,0-2.88-2C290,171.25,267.1,174.43,264.82,176.1Z" style="fill:#E83F6F;stroke:#263238;stroke-linecap:round;stroke-linejoin:round"></path><path d="M293.47,202.32s-1.06-17.13-3.64-23.8" style="fill:none;stroke:#263238;stroke-linecap:round;stroke-linejoin:round"></path><line x1="254.21" y1="203.23" x2="284.68" y2="192.01" style="fill:none;stroke:#263238;stroke-linecap:round;stroke-linejoin:round"></line><path d="M267.7,198.68a23.23,23.23,0,0,0,8.19,8" style="fill:none;stroke:#263238;stroke-linecap:round;stroke-linejoin:round"></path><path d="M266.49,199s6.52,24.55,13.34,30" style="fill:none;stroke:#263238;stroke-linecap:round;stroke-linejoin:round"></path><path d="M264.67,199.59s1.52,18.64,5,26.07" style="fill:none;stroke:#263238;stroke-linecap:round;stroke-linejoin:round"></path><path d="M286.34,132.15s-7.88,3.94-9.24,5.6-1.82,3.49-3.79,4.85-4.7,1.67-4.09,2.73a20.07,20.07,0,0,0,2.73,3s-2,6.37-3,8.79-.75,4.4.91,4.7,9.1,0,9.1,0l-1.82,11.07L290.89,169,292,160,287.56,154s4.69-1.21,5.6-3.33a2.27,2.27,0,0,0-2.42-3.34c-1.67.31-5.15,2.28-5.15,1.82s3.18-4.7,3.18-5.91-3.64-4.09-2.73-4.7,5.31-1.82,5.46-3.79S286.34,132.15,286.34,132.15Z" style="fill:#fff;stroke:#263238;stroke-linecap:round;stroke-linejoin:round"></path><path d="M278.27,142.43c-.3.73-.77,1.24-1,1.13s-.24-.8.06-1.54.77-1.24,1-1.13S278.57,141.69,278.27,142.43Z" style="fill:#263238"></path><path d="M278.61,138.06s2.13-1.52,2.73,1.66" style="fill:none;stroke:#263238;stroke-linecap:round;stroke-linejoin:round"></path><path d="M273.31,151.55a4.69,4.69,0,0,0,4.55,0" style="fill:none;stroke:#263238;stroke-linecap:round;stroke-linejoin:round"></path><path d="M229.89,171s-1.44-9.42,5.53-11.85,17.73-1.06,28.49,2,18.8.76,23.34.91,11.37,1.37,11.37,4.55a8.53,8.53,0,0,1-3.33,6.22c-.76.45-2.73-1.22-2.73-1.22s-19.76,4.07-30.77,5.16c-14.73,1.45-21.15,3.1-27.11-.15" style="fill:#fff;stroke:#263238;stroke-linecap:round;stroke-linejoin:round"></path><path d="M286.19,157.61s-3.64,4.7-3.64,6.36,1.67.91,2.58.31,4.7-5.31,4.09-6.22S287.56,156.24,286.19,157.61Z" style="fill:#fff;stroke:#263238;stroke-linecap:round;stroke-linejoin:round"></path><path d="M292.1,159.43s-3.63,4.7-3.63,6.36,1.66.91,2.57.31,4.7-5.31,4.09-6.22S293.47,158.06,292.1,159.43Z" style="fill:#fff;stroke:#263238;stroke-linecap:round;stroke-linejoin:round"></path><path d="M294.89,161.61s-2.79,3.6-2.79,4.88,1.28.69,2,.23,3.59-4.06,3.13-4.76S295.93,160.57,294.89,161.61Z" style="fill:#fff;stroke:#263238;stroke-linecap:round;stroke-linejoin:round"></path><path d="M289.22,158.06s-4.39,6.52-4.09,7.58,2.27-.3,4.7-2.73S292.86,155.64,289.22,158.06Z" style="fill:#fff;stroke:#263238;stroke-linecap:round;stroke-linejoin:round"></path><path d="M232.47,187.35s4.39,4,4.68,5.65-1.49,1.18-2.49.74-5.54-4.42-5.1-5.42S230.89,186.24,232.47,187.35Z" style="fill:#fff;stroke:#263238;stroke-linecap:round;stroke-linejoin:round"></path><path d="M227,190.16s4.39,4,4.68,5.64-1.49,1.19-2.49.75-5.54-4.42-5.1-5.42S225.38,189.05,227,190.16Z" style="fill:#fff;stroke:#263238;stroke-linecap:round;stroke-linejoin:round"></path><path d="M224.59,192.79s3.36,3.06,3.58,4.32-1.13.91-1.9.57-4.24-3.38-3.9-4.15S223.39,191.94,224.59,192.79Z" style="fill:#fff;stroke:#263238;stroke-linecap:round;stroke-linejoin:round"></path><path d="M229.56,188.32s5.45,5.66,5.34,6.76-2.3.09-5.1-1.88S225.56,186.55,229.56,188.32Z" style="fill:#fff;stroke:#263238;stroke-linecap:round;stroke-linejoin:round"></path><path d="M249.51,300.69s.15,7.27,1.22,8.64,7.73,1.36,13.64,1.21,10.91-.76,11.67-2.28,1.06-8.94.15-9.39-10.16,1.36-16.82,1.36S249.51,298.87,249.51,300.69Z" style="fill:#fff;stroke:#263238;stroke-linecap:round;stroke-linejoin:round"></path><path d="M260.88,413.75c7.28-.3,11.37-2.57,14.85-2.88s4.7-1.36,4.7-5.6c0-2-.67-3.6-1.43-5.79-4.81,2.06-11.6,2.3-11.6,2.3a10.36,10.36,0,0,0-1.06-5.46c-1.37-2.27-3.94-.6-3.94-.6l-.44-.08c-1.85,2.52-11.49,8.37-14.87,9.78-3.64,1.51-6.22,2.73-5.91,4.39S253.61,414.06,260.88,413.75Z" style="fill:#263238;stroke:#263238;stroke-linecap:round;stroke-linejoin:round"></path><path d="M280.34,407c-4.17,1-14.52,5.12-24.76,4.17-8.34-.78-12.43-2.05-14-2.67a1.57,1.57,0,0,0-.38,1.3c.3,1.67,12.43,4.25,19.7,3.94s11.37-2.57,14.85-2.88C278.68,410.62,280,409.81,280.34,407Z" style="fill:#fff;stroke:#263238;stroke-linecap:round;stroke-linejoin:round"></path><path d="M165.89,284.45a6.7,6.7,0,0,0,.43-2.38c0-1.89,8.19-3.62,9.14-3.62h.77c-1.49-2.37-3.15-7.3-4.24-8-1.42-.95-7.56-.79-13.07.63s-12.45,2.67-14.5,4.09-1.1,2.68,1,3a65.25,65.25,0,0,1,14,3.79C160.85,282.52,163.18,283.42,165.89,284.45Z" style="fill:#263238;stroke:#263238;stroke-linecap:round;stroke-linejoin:round"></path><path d="M173.48,272.78a7.1,7.1,0,0,0-1.49-2.36c-1.42-.95-7.56-.79-13.07.63s-12.45,2.67-14.5,4.09c-1.73,1.21-1.31,2.29.11,2.79.58-.69,1.88-1.64,4.78-2.79C154.91,272.93,168,272.1,173.48,272.78Z" style="fill:#fff;stroke:#263238;stroke-linecap:round;stroke-linejoin:round"></path><path d="M228.75,377a72.76,72.76,0,0,1-1.05-10.95.53.53,0,0,0-.2-.05c-2.5,0-4,2.5-4,2.5l-4.94-6.65c-2.44,3-6.84,6.72-6.06,9.65,1,3.75,5,3.75,7,8.25s9.75,11.5,11.75,10S230,383.25,228.75,377Z" style="fill:#263238;stroke:#263238;stroke-linecap:round;stroke-linejoin:round"></path><path d="M231.25,389.75a1.44,1.44,0,0,0,.44-.57c-9-5.12-9.79-11.56-11.19-13.43-1.05-1.4-5.13-5-7.51-7a3.93,3.93,0,0,0-.49,2.77c1,3.75,5,3.75,7,8.25S229.25,391.25,231.25,389.75Z" style="fill:#fff;stroke:#263238;stroke-linecap:round;stroke-linejoin:round"></path></g></svg>
