<svg xmlns="http://www.w3.org/2000/svg" viewBox="0 0 500 500"><g id="freepik--background-complete--inject-3"><rect y="382.4" width="500" height="0.25" style="fill:#ebebeb"></rect><rect x="416.78" y="398.49" width="33.12" height="0.25" style="fill:#ebebeb"></rect><rect x="322.53" y="401.21" width="8.69" height="0.25" style="fill:#ebebeb"></rect><rect x="396.59" y="389.21" width="19.19" height="0.25" style="fill:#ebebeb"></rect><rect x="52.46" y="390.89" width="43.19" height="0.25" style="fill:#ebebeb"></rect><rect x="104.56" y="390.89" width="6.33" height="0.25" style="fill:#ebebeb"></rect><rect x="131.47" y="395.11" width="93.68" height="0.25" style="fill:#ebebeb"></rect><path d="M237,337.8H43.91a5.71,5.71,0,0,1-5.7-5.71V60.66A5.71,5.71,0,0,1,43.91,55H237a5.71,5.71,0,0,1,5.71,5.71V332.09A5.71,5.71,0,0,1,237,337.8ZM43.91,55.2a5.46,5.46,0,0,0-5.45,5.46V332.09a5.46,5.46,0,0,0,5.45,5.46H237a5.47,5.47,0,0,0,5.46-5.46V60.66A5.47,5.47,0,0,0,237,55.2Z" style="fill:#ebebeb"></path><path d="M453.31,337.8H260.21a5.72,5.72,0,0,1-5.71-5.71V60.66A5.72,5.72,0,0,1,260.21,55h193.1A5.71,5.71,0,0,1,459,60.66V332.09A5.71,5.71,0,0,1,453.31,337.8ZM260.21,55.2a5.47,5.47,0,0,0-5.46,5.46V332.09a5.47,5.47,0,0,0,5.46,5.46h193.1a5.47,5.47,0,0,0,5.46-5.46V60.66a5.47,5.47,0,0,0-5.46-5.46Z" style="fill:#ebebeb"></path><rect x="112.81" y="78.42" width="278.2" height="213.5" style="fill:#ebebeb"></rect><rect x="107.45" y="78.42" width="5.36" height="213.5" transform="translate(220.26 370.34) rotate(180)" style="fill:#e6e6e6"></rect><rect x="155.16" y="56.07" width="193.5" height="258.2" transform="translate(437.08 -66.74) rotate(90)" style="fill:#fafafa"></rect><rect x="375.65" y="88.42" width="5.36" height="193.5" transform="translate(756.65 370.34) rotate(180)" style="fill:#e6e6e6"></rect><polygon points="154.93 281.92 202.21 88.42 231.74 88.42 184.45 281.92 154.93 281.92" style="fill:#fff"></polygon><polygon points="192.5 281.92 239.78 88.42 258.05 88.42 210.76 281.92 192.5 281.92" style="fill:#fff"></polygon><polygon points="290.5 281.92 337.78 88.42 356.05 88.42 308.76 281.92 290.5 281.92" style="fill:#fff"></polygon><path d="M102.23,71V310.33h39.44s4-59.33-13.33-92C147,184.11,174,132.33,174,71Z" style="fill:#f0f0f0"></path><path d="M127.8,222.33H103.47a4,4,0,0,1-4-4h0a4,4,0,0,1,4-4H127.8a4,4,0,0,1,4,4h0A4,4,0,0,1,127.8,222.33Z" style="fill:#e0e0e0"></path><path d="M397.77,71V310.33H358.33s-4-59.33,13.33-92C353,184.11,326,132.33,326,71Z" style="fill:#f0f0f0"></path><path d="M372.2,222.33h24.33a4,4,0,0,0,4-4h0a4,4,0,0,0-4-4H372.2a4,4,0,0,0-4,4h0A4,4,0,0,0,372.2,222.33Z" style="fill:#e0e0e0"></path><polygon points="394.45 369 388.18 366.84 390.98 351.9 397.25 354.05 394.45 369" style="fill:#e6e6e6"></polygon><polygon points="446.61 374.15 440.06 374.71 437.61 359.71 444.16 359.15 446.61 374.15" style="fill:#e6e6e6"></polygon><path d="M438.84,374l7.94-.68a.61.61,0,0,1,.61.4l2,5.7a.93.93,0,0,1-.81,1.25c-2.56.17-4.45.18-7.67.46-2,.17-6.53,1.27-11.62,1.27-2.7,0-2.51-2.77-1.38-2.94,5.6-.85,8.49-3.38,9.93-5A1.56,1.56,0,0,1,438.84,374Z" style="fill:#e6e6e6"></path><path d="M388.45,366.14l6.84,2.36a.58.58,0,0,1,.4.6l-.48,5.95a.92.92,0,0,1-1.24.79c-2.46-.89-6-2.26-9.08-3.33-3.63-1.25-6.83-2.13-11.08-3.6-2.57-.88-2.49-3.7-1.34-3.57,5.24.63,9.28,1.89,14.32.76A3,3,0,0,1,388.45,366.14Z" style="fill:#e6e6e6"></path><path d="M416.48,169.48a4.82,4.82,0,0,0-6.36,2.77l0,.05c-1.64,4.51-3.35,9.12-5.11,13.6-.86,2.26-1.78,4.48-2.71,6.66-.87,2-1.79,4-2.75,5.84-.59-.92-1.19-1.9-1.75-2.92-2.34-4.21-4.55-8.77-6.74-13.24l0-.06a2.57,2.57,0,0,0-2.74-1.41,2.39,2.39,0,0,0-1.89,2.89,95.61,95.61,0,0,0,4.41,14.93c.5,1.24,1,2.49,1.65,3.76a22.25,22.25,0,0,0,2.46,4,11.23,11.23,0,0,0,1.09,1.17,7.24,7.24,0,0,0,2,1.32,5.23,5.23,0,0,0,.8.29,4.7,4.7,0,0,0,1,.19,5.44,5.44,0,0,0,2.25-.22,8.14,8.14,0,0,0,1-.43c.26-.16.53-.34.78-.53s.39-.35.58-.53l.24-.26a26.68,26.68,0,0,0,2.68-3.6,105.74,105.74,0,0,0,6.89-13.81c1.95-4.65,3.71-9.29,5.32-14.1A5.16,5.16,0,0,0,416.48,169.48Z" style="fill:#e6e6e6"></path><path d="M392,184.56l-1.08-4.05L381.66,182a28.62,28.62,0,0,1,6,3.55Z" style="fill:#e6e6e6"></path><polygon points="385.95 177.2 378.24 177.37 381.66 181.95 390.9 180.51 385.95 177.2" style="fill:#e6e6e6"></polygon><polygon points="391.11 177.61 393.27 177.48 390.54 181.85 387.35 180.01 391.11 177.61" style="fill:#e6e6e6"></polygon><path d="M443.9,170.21a4.64,4.64,0,0,1,3.37,5.57,153.6,153.6,0,0,0-3.09,17.13c-.63,5.06-1,9.9-1.26,14.3-.58,10.3-.37,18.18-.68,20.83l-35-3.78c-3.46-27.88.7-45.47,3.07-52.68a6.14,6.14,0,0,1,5.32-4.22c1.31-.11,2.86-.22,4.48-.25.59,0,1.2,0,1.81,0a130,130,0,0,1,14.87,1.61c.94.14,1.88.32,2.8.5C441.14,169.53,442.61,169.88,443.9,170.21Z" style="fill:#e6e6e6"></path><path d="M436.54,151.83c-1.28,4.68-2.86,13.34.26,16.89-2.64,2.26-13.09,5.69-13.09,5.69s-2.81-5.81-1.78-7.3c5.43-.7,4.25-5.55,3.59-9.37Z" style="fill:#e6e6e6"></path><polygon points="436.24 165.37 438.68 169.64 432.63 172.6 431.27 168.87 436.24 165.37" style="fill:#e6e6e6"></polygon><polygon points="425.43 164.19 428.08 168.34 422.2 171.62 420.66 167.95 425.43 164.19" style="fill:#e6e6e6"></polygon><path d="M437.63,144.7c-.87,6.43-1.05,10.25-4.56,13.22-5.28,4.46-13.07.63-14.14-6-1-6,.61-15.47,7.14-17.36A9.21,9.21,0,0,1,437.63,144.7Z" style="fill:#e6e6e6"></path><path d="M436.85,149.06c-2.32-1.76-2.17-7.49-1.56-9.29-5.75-.55-23.85,0-14.5-9.51,2.84,2.33,10.21,2.94,14.06,1.65s6.6,4,4.84,5.89C444.6,139.89,440.25,149.65,436.85,149.06Z" style="fill:#e6e6e6"></path><path d="M439.91,151.15a5.92,5.92,0,0,1-3.6,2.94c-2.07.58-3.17-1.29-2.66-3.27.46-1.78,2.1-4.22,4.2-3.93A2.87,2.87,0,0,1,439.91,151.15Z" style="fill:#e6e6e6"></path><path d="M387.78,360.32l10.78,3.05s8.89-38.53,12.24-61.64c.89-6.13,3.74-14.55,5.83-23.7,2.62-11.54,5.92-24,8.61-33.75,2.84-10.27,5-17.53,5-17.53l-23-2.49s-12.59,53.88-14,73.83C391.85,318.83,387.78,360.32,387.78,360.32Z" style="fill:#e6e6e6"></path><path d="M419.66,225.6s2,56.63,4.68,75.77c3,21,11.37,64.82,11.37,64.82l11.94-1s-3-40-5.53-60.43c-2.92-23.33.11-76.7.11-76.7Z" style="fill:#e6e6e6"></path><path d="M448.9,176.83l.73,5.65c.27,1.92.52,3.84.84,5.75.58,3.82,1.24,7.61,2.09,11.27.2.92.42,1.82.66,2.72l.17.67a14.18,14.18,0,0,1,.38,1.74,10.17,10.17,0,0,1-.27,4.13,9.7,9.7,0,0,1-1.67,3.23,10.63,10.63,0,0,1-2,1.88,13.26,13.26,0,0,1-3.59,1.88,19.63,19.63,0,0,1-3.27.87,26.59,26.59,0,0,1-3.13.41,32.47,32.47,0,0,1-6.15-.11,3.47,3.47,0,0,1-2.92-3.74,3.25,3.25,0,0,1,2-2.84l.22-.09c3.22-1.28,6.76-2.62,9.09-4.25a5.14,5.14,0,0,0,1.2-1.1c.09-.14.1-.23,0-.2a1.09,1.09,0,0,0-.4.59,2.56,2.56,0,0,0-.16,1.13c0,.12,0,.34,0,.26l-.29-.77c-.38-1-.75-2.06-1.08-3.09-.68-2.07-1.24-4.15-1.8-6.22s-1-4.15-1.39-6.23-.77-4.17-1.05-6.27c-.16-1-.29-2.09-.4-3.15s-.21-2.07-.3-3.25a6.36,6.36,0,0,1,5.73-7.09,6.62,6.62,0,0,1,6.69,6Z" style="fill:#e6e6e6"></path><polygon points="401.86 178.73 371.16 177.56 370.04 175.84 403.1 177.11 401.86 178.73" style="fill:#e6e6e6"></polygon><polygon points="380.97 167.86 386.21 165.04 375.36 164.62 380.37 167.84 380.09 175.08 378.1 176.15 382.6 176.33 380.69 175.1 380.97 167.86" style="fill:#e6e6e6"></polygon><polygon points="393.92 168.36 399.15 165.53 388.31 165.12 393.32 168.34 393.04 175.58 391.05 176.65 395.54 176.82 393.64 175.6 393.92 168.36" style="fill:#e6e6e6"></polygon><path d="M67.36,376.82h24a4.26,4.26,0,0,1,4.26,4.26v1.33a0,0,0,0,1,0,0H63.11a0,0,0,0,1,0,0v-1.33A4.26,4.26,0,0,1,67.36,376.82Z" style="fill:#e6e6e6"></path><path d="M81.76,379.61H77V90.8a2.39,2.39,0,0,1,2.38-2.38h0a2.39,2.39,0,0,1,2.38,2.38Z" style="fill:#e6e6e6"></path><path d="M80.82,128.16a2.25,2.25,0,0,1,0-4.5,8.08,8.08,0,0,0,8.07-8.08,2.26,2.26,0,0,1,4.51,0A12.59,12.59,0,0,1,80.82,128.16Z" style="fill:#e6e6e6"></path><path d="M80.82,174.48a2.26,2.26,0,0,1,0-4.51,8.08,8.08,0,0,0,8.07-8.07,2.26,2.26,0,1,1,4.51,0A12.6,12.6,0,0,1,80.82,174.48Z" style="fill:#e6e6e6"></path><path d="M77.13,151.32a2.26,2.26,0,0,0,0-4.51,8.09,8.09,0,0,1-8.08-8.07,2.25,2.25,0,0,0-4.5,0A12.59,12.59,0,0,0,77.13,151.32Z" style="fill:#e6e6e6"></path><path d="M73,136c-.79-3.53-9.89-4.88-12.27.87S46.24,198,46.24,198l7.51,7.51-5.38,34.42,12-1.25-.75,6.88,13.4-.62,3.75-2.76-2.5-41.55,6.85-1.76S75.41,146.63,73,136Z" style="fill:#f0f0f0"></path><polygon points="60.67 169.03 53.75 205.46 51.39 203.09 60.67 169.03" style="fill:#e0e0e0"></polygon></g><g id="freepik--Shadow--inject-3"><ellipse id="freepik--path--inject-3" cx="250" cy="416.24" rx="193.89" ry="11.32" style="fill:#f5f5f5"></ellipse></g><g id="freepik--character-2--inject-3"><path d="M278.75,329.77c0-.07,0-.14-.05-.21l-2.61-16.44a3,3,0,0,1,3-3.56h28.46l6.81-44.94a5,5,0,0,1,4.75-4.13h45.47a3.46,3.46,0,0,1,3.5,4.13l-9.38,61.93a5,5,0,0,1-4.75,4.13h-.87l-.86,2.87a4.53,4.53,0,0,1-4.33,3.22h-72.3A9.29,9.29,0,0,1,278.75,329.77Z" style="fill:#E83F6F"></path><path d="M278.75,329.77c0-.07,0-.14-.05-.21l-2.61-16.44a3,3,0,0,1,3-3.56h28.46l6.81-44.94a5,5,0,0,1,4.75-4.13h45.47a3.46,3.46,0,0,1,3.5,4.13l-9.38,61.93a5,5,0,0,1-4.75,4.13h-.87l-.86,2.87a4.53,4.53,0,0,1-4.33,3.22h-72.3A9.29,9.29,0,0,1,278.75,329.77Z" style="opacity:0.5"></path><polygon points="326.2 410.31 329.37 410.31 325.03 336.76 321.85 336.76 326.2 410.31" style="fill:#E83F6F"></polygon><polygon points="326.2 410.31 329.37 410.31 325.03 336.76 321.85 336.76 326.2 410.31" style="fill:#fff;opacity:0.5"></polygon><polygon points="278.95 410.31 275.77 410.31 280.12 336.76 283.29 336.76 278.95 410.31" style="fill:#E83F6F"></polygon><polygon points="278.95 410.31 275.77 410.31 280.12 336.76 283.29 336.76 278.95 410.31" style="fill:#fff;opacity:0.5"></polygon><polygon points="346.08 410.31 349.25 410.31 344.9 336.76 341.73 336.76 346.08 410.31" style="fill:#E83F6F"></polygon><polygon points="346.08 410.31 349.25 410.31 344.9 336.76 341.73 336.76 346.08 410.31" style="fill:#fff;opacity:0.5"></polygon><polygon points="298.83 410.31 295.65 410.31 300 336.76 303.17 336.76 298.83 410.31" style="fill:#E83F6F"></polygon><polygon points="298.83 410.31 295.65 410.31 300 336.76 303.17 336.76 298.83 410.31" style="fill:#fff;opacity:0.5"></polygon><polygon points="244.33 404.42 237.39 401.3 242.19 384.17 249.13 387.29 244.33 404.42" style="fill:#ffc3bd"></polygon><path d="M237.62,399.12l7.79,3.5a.55.55,0,0,1,.3.71l-2.39,6.33a1.35,1.35,0,0,1-1.77.69c-2.69-1.27-3.92-2-7.34-3.55-2.11-.95-9.39-4.15-12.12-5.81s-1-4.31.3-3.85c5.85,2.06,11.19,2.53,13.84,1.87A2.12,2.12,0,0,1,237.62,399.12Z" style="fill:#263238"></path><polygon points="249.13 387.3 242.19 384.17 239.72 393 246.66 396.13 249.13 387.3" style="opacity:0.2"></polygon><path d="M305.06,291.26s-56.19,2.9-56.27,24.7c-.12,31.34-11.22,70.59-11.22,70.59l12.92,5.2s19.5-45.7,19.22-70.16c15.36-4.41,55.12,3,59.82-9.74a41.8,41.8,0,0,0,1.77-20.59Z" style="fill:#E83F6F"></path><path d="M305.06,291.26s-56.19,2.9-56.27,24.7c-.12,31.34-11.22,70.59-11.22,70.59l12.92,5.2s19.5-45.7,19.22-70.16c15.36-4.41,55.12,3,59.82-9.74a41.8,41.8,0,0,0,1.77-20.59Z" style="opacity:0.30000000000000004"></path><polygon points="250.64 395.51 235.84 388.86 237.03 382.79 252.65 388.19 250.64 395.51" style="fill:#263238"></polygon><path d="M234.62,399.22a9.54,9.54,0,0,0,2,.59.18.18,0,0,0,.18-.08.17.17,0,0,0,0-.19c-.15-.25-1.51-2.48-2.51-2.52a.64.64,0,0,0-.58.28,1,1,0,0,0-.19,1A2,2,0,0,0,234.62,399.22Zm1.62.15c-1.35-.31-2.25-.76-2.43-1.23a.62.62,0,0,1,.15-.62.29.29,0,0,1,.28-.15C234.77,397.4,235.66,398.5,236.24,399.37Z" style="fill:#E83F6F"></path><path d="M236.54,399.79a.11.11,0,0,0,.08,0,.19.19,0,0,0,.15-.09c0-.08,1.09-2,.7-3a.92.92,0,0,0-.59-.53.66.66,0,0,0-.8.23c-.5.68-.12,2.59.39,3.31A.11.11,0,0,0,236.54,399.79Zm.31-3.23a.55.55,0,0,1,.29.29,3.9,3.9,0,0,1-.54,2.41,3.65,3.65,0,0,1-.24-2.64.34.34,0,0,1,.42-.09Z" style="fill:#E83F6F"></path><path d="M308.74,236.09c-.65,2-1.3,3.86-2,5.75s-1.45,3.73-2.23,5.57c-1.57,3.69-3.29,7.34-5.24,10.91a78.89,78.89,0,0,1-6.71,10.48,44.25,44.25,0,0,1-4.36,4.93,27.34,27.34,0,0,1-5.75,4.34l-.42.23-.21.07a9.13,9.13,0,0,1-4.13.51,15.2,15.2,0,0,1-2.67-.49,32,32,0,0,1-4.2-1.5,68,68,0,0,1-7.17-3.72c-2.26-1.34-4.44-2.74-6.57-4.21s-4.2-3-6.24-4.66l3-4.83c2.26,1,4.54,2.07,6.83,3s4.55,2,6.81,2.9,4.52,1.77,6.68,2.44a21.34,21.34,0,0,0,3,.73,5.92,5.92,0,0,0,1.07.08c.22,0,.28-.14-.39.07l-.63.31a26.05,26.05,0,0,0,6.45-6.78,81.07,81.07,0,0,0,5.45-9.26c1.65-3.27,3.19-6.65,4.63-10.1.72-1.71,1.42-3.45,2.09-5.19s1.33-3.54,1.89-5.17Z" style="fill:#ffc3bd"></path><path d="M300.19,227.81c-8.37,4.3-11.62,19-11.62,19l16.58,11.07c5.34-5,10.08-16,11-21.06C317.45,229.13,310.13,222.7,300.19,227.81Z" style="fill:#263238"></path><path d="M303.26,240.39c-2.8,3.29-3.9,8.22-3.88,13.65l5.77,3.85C310.33,253,315,242.48,316,237.3,311.11,236.52,305.39,237.86,303.26,240.39Z" style="opacity:0.30000000000000004"></path><polygon points="304.29 405.43 296.69 405.43 293.21 387.82 300.81 387.82 304.29 405.43" style="fill:#ffc3bd"></polygon><path d="M296.46,403.58H305a.54.54,0,0,1,.56.52l.42,6.76a1.35,1.35,0,0,1-1.34,1.35c-3,0-4.39-.23-8.15-.23-2.31,0-10.15.24-13.34.24s-3.1-3.15-1.75-3.44c6.07-1.28,11.6-3,13.75-4.73A2.08,2.08,0,0,1,296.46,403.58Z" style="fill:#263238"></path><polygon points="300.81 387.83 293.21 387.83 295.1 397.37 302.61 396.9 300.81 387.83" style="opacity:0.2"></polygon><path d="M320,291.26s-50.14,4.24-48.9,26c1.35,23.83,20.65,77.44,20.65,77.44h13.92s-6.29-48.5-9.35-72.77c14.13,0,43.45,2.66,48.15-10.09a56.64,56.64,0,0,0,3.35-20.2Z" style="fill:#E83F6F"></path><path d="M320,291.26s-50.14,4.24-48.9,26c1.35,23.83,20.65,77.44,20.65,77.44h13.92s-6.29-48.5-9.35-72.77c14.13,0,43.45,2.66,48.15-10.09a56.64,56.64,0,0,0,3.35-20.2Z" style="opacity:0.30000000000000004"></path><polygon points="306.51 394.64 289.84 395.93 288.33 388.8 305.8 388.31 306.51 394.64" style="fill:#263238"></polygon><path d="M293.76,404.91a9.38,9.38,0,0,0,2-.28.17.17,0,0,0,.13-.14.19.19,0,0,0-.07-.17c-.25-.17-2.4-1.64-3.33-1.28a.68.68,0,0,0-.41.5,1,1,0,0,0,.22,1A2.05,2.05,0,0,0,293.76,404.91Zm1.54-.53c-1.36.27-2.36.23-2.72-.13a.61.61,0,0,1-.12-.63.32.32,0,0,1,.19-.25C293.15,403.17,294.42,403.82,295.3,404.38Z" style="fill:#E83F6F"></path><path d="M295.75,404.64l.08,0a.17.17,0,0,0,.09-.14c0-.1.18-2.28-.59-3a.89.89,0,0,0-.75-.25.67.67,0,0,0-.64.54c-.18.83,1,2.41,1.72,2.86A.12.12,0,0,0,295.75,404.64Zm-1-3.08a.55.55,0,0,1,.38.15,4,4,0,0,1,.5,2.42c-.66-.56-1.42-1.77-1.3-2.31,0-.1.08-.23.33-.26Z" style="fill:#E83F6F"></path><path d="M255.7,260.29l-7.07-4.58-2.56,8.85s8,2.54,9.46.38Z" style="fill:#ffc3bd"></path><polygon points="240.71 257.21 240.94 264.05 246.07 264.56 248.63 255.71 240.71 257.21" style="fill:#ffc3bd"></polygon><path d="M344.66,224.42c-.76-2-4.25-4-6.41-4l-1.42,0c-2.47,0-5.57.19-8.57.55a150.48,150.48,0,0,0-17,2.85c-2.58.68-5.07,1.54-7,2.28-2.53,1-4,1.67-4,1.67s4.21,44.43,4.92,63.84h42.67c1.47-8.33.51-23.6.63-38.66C348.48,243.92,347.75,232.66,344.66,224.42Z" style="fill:#263238"></path><path d="M346.68,232c.21,1.53.35,2.82.44,4.22s.17,2.74.21,4.11c.07,2.74,0,5.49-.18,8.25a67.89,67.89,0,0,1-1.09,8.3l-.42,2.09L345.1,261c-.17.69-.42,1.39-.63,2.08l-.34,1-.08.25-.19.5a8.82,8.82,0,0,1-.45,1,12.25,12.25,0,0,1-4.52,4.54,25.11,25.11,0,0,1-4.32,2.06,50.72,50.72,0,0,1-8.2,2.19,88,88,0,0,1-16.07,1.39l-.59-5.67c4.89-1.19,9.87-2.52,14.52-4.07a51.84,51.84,0,0,0,6.56-2.65,14.67,14.67,0,0,0,2.54-1.56c.67-.5,1-1.07.87-.95l-.06.09,0,0,.05-.21.18-.83c.12-.56.28-1.1.36-1.68l.3-1.71.24-1.75c.28-2.34.46-4.73.52-7.14s.05-4.86,0-7.3c0-1.22-.1-2.44-.19-3.65l-.14-1.81-.14-1.71Z" style="fill:#ffc3bd"></path><path d="M346.67,223.16c-6.34-4.49-11.84-4.08-14.74,6-1.91,6.59-1.27,20.71-1.27,20.71l19-1.36C351.93,238,352.16,227.06,346.67,223.16Z" style="fill:#263238"></path><path d="M325.75,201l-4.24,4.92-5.78,6.69a21.5,21.5,0,0,1,.88,2.64c1,3.58.58,7-4.56,9.21,0,0-4.44,5.8,6.12,4.19s12.15-7.13,12.15-7.13C325.65,218.25,325.38,207.19,325.75,201Z" style="fill:#ffc3bd"></path><path d="M315.73,212.63a21.5,21.5,0,0,1,.88,2.64c2.42-.92,5.32-4.15,5.24-6.76a12.15,12.15,0,0,0-.34-2.57Z" style="opacity:0.2"></path><path d="M305.62,183.53c-3.34,1.48-2.89,11.83,0,13.47S312.73,180.36,305.62,183.53Z" style="fill:#263238"></path><path d="M326.36,192.15c-.4,8.16-.22,12.95-4.27,17.32a10.63,10.63,0,0,1-18.22-4.7c-1.84-7.24-.88-19.37,7-23A10.76,10.76,0,0,1,326.36,192.15Z" style="fill:#ffc3bd"></path><path d="M319.06,199.42c-.17,1.26-1.79,2.08-3.63,1.84s-3.19-1.46-3-2.72,1.78-2.07,3.62-1.83S319.22,198.17,319.06,199.42Z" style="fill:#ed847e;opacity:0.30000000000000004"></path><path d="M304.88,198.63a2.13,2.13,0,0,0-1.8-1.3,31.53,31.53,0,0,0,.19,4.17C304.52,200.8,305.21,199.63,304.88,198.63Z" style="fill:#ed847e;opacity:0.30000000000000004"></path><path d="M304.72,184.35c2.7,4.72,17.13,2.23,17.13,2.23A54.32,54.32,0,0,0,320.72,199a6.25,6.25,0,0,0,4.61.18l3.55-2.79s5.75-6.5,3.2-11.25C334.38,182.08,296.39,176.72,304.72,184.35Z" style="fill:#263238"></path><path d="M334.5,184.21a2.71,2.71,0,0,0-1.42-2.49,2.63,2.63,0,0,0-2.39-2.68,3.13,3.13,0,0,0-4.56-1.74,3.11,3.11,0,0,0-4.4-1.63,3.37,3.37,0,0,0-4.52-.95,3.73,3.73,0,0,0-1.34,1.11,3.35,3.35,0,0,0-3.88-.33,3.44,3.44,0,0,0-1.61,1.61A3.27,3.27,0,0,0,307,177a3.2,3.2,0,0,0-1.75,2.12,3.43,3.43,0,0,0-.62.24,2.53,2.53,0,0,0-1.18,3.59,2.54,2.54,0,0,0,1.79,3.27,2.64,2.64,0,0,0,3.6-2.39,3,3,0,0,0,0-.42,19.44,19.44,0,0,0,6,1.48c6.95.81,11.63-.1,13.6-1.37a2.74,2.74,0,0,0,.62.43,2.42,2.42,0,0,0,.16,1,2.52,2.52,0,0,0,.89,4.48,2.63,2.63,0,0,0,3.6-2.39,2.69,2.69,0,0,0-.13-.9A2.72,2.72,0,0,0,334.5,184.21Z" style="fill:#263238"></path><path d="M329.42,199.3a8.6,8.6,0,0,1-4.58,4c-2.55.9-3.76-1.39-3-3.93.69-2.29,2.86-5.52,5.39-5.32S330.64,197,329.42,199.3Z" style="fill:#ffc3bd"></path><path d="M313,195.13c0,.66-.33,1.22-.76,1.24s-.79-.5-.8-1.17.33-1.21.77-1.23S313,194.47,313,195.13Z" style="fill:#263238"></path><path d="M305.5,195.48c0,.67-.33,1.22-.76,1.24s-.79-.5-.8-1.16.33-1.22.77-1.24S305.5,194.82,305.5,195.48Z" style="fill:#263238"></path><path d="M307.78,195.37a21,21,0,0,1-2.29,5.12,3.24,3.24,0,0,0,2.72.2Z" style="fill:#ed847e"></path><path d="M308.75,203.87a5.71,5.71,0,0,0,4.09-1.82.2.2,0,0,0-.3-.25,5.43,5.43,0,0,1-4.52,1.66.19.19,0,0,0-.21.18.19.19,0,0,0,.17.21A6.77,6.77,0,0,0,308.75,203.87Z" style="fill:#263238"></path><path d="M315.69,192.78a.42.42,0,0,0,.17-.1.39.39,0,0,0,0-.55,3.72,3.72,0,0,0-3.33-1.11.38.38,0,0,0,.17.75,3,3,0,0,1,2.61.9A.39.39,0,0,0,315.69,192.78Z" style="fill:#263238"></path><path d="M303.12,193a.37.37,0,0,0,.31-.17,3.25,3.25,0,0,1,2.43-1.55.39.39,0,0,0,.37-.4.38.38,0,0,0-.4-.38h0a4,4,0,0,0-3.05,1.9.39.39,0,0,0,.12.54A.29.29,0,0,0,303.12,193Z" style="fill:#263238"></path><path d="M311.22,270.14l-7-.4,3,7.66s6.9.29,6.76-3.28Z" style="fill:#ffc3bd"></path><polygon points="297.25 274.17 300.56 279.22 307.18 277.4 304.22 269.74 297.25 274.17" style="fill:#ffc3bd"></polygon><path d="M352.77,303.87H322.11a4.14,4.14,0,0,0-3.93,3.39L315.69,323a2.82,2.82,0,0,0,2.85,3.39H349.2a4.14,4.14,0,0,0,3.93-3.39l2.49-15.7A2.82,2.82,0,0,0,352.77,303.87Z" style="fill:#E83F6F"></path><path d="M352.77,303.87H322.11a4.14,4.14,0,0,0-3.93,3.39L315.69,323a2.82,2.82,0,0,0,2.85,3.39H349.2a4.14,4.14,0,0,0,3.93-3.39l2.49-15.7A2.82,2.82,0,0,0,352.77,303.87Z" style="opacity:0.5"></path><path d="M268.35,279.39h0a.31.31,0,0,1-.42,0L228.7,240.15a.3.3,0,0,1,0-.41h0a.3.3,0,0,1,.41,0L268.35,279A.31.31,0,0,1,268.35,279.39Z" style="fill:#E83F6F"></path><path d="M226.13,242.12l-1.62-1.62a3.46,3.46,0,0,1,0-4.88,3.41,3.41,0,0,1,2.76-1A7.53,7.53,0,0,0,226.13,242.12Z" style="fill:#E83F6F"></path><path d="M226.37,237.28a4,4,0,0,0,5.44,1.43l-4-6.87A4,4,0,0,0,226.37,237.28Z" style="fill:#E83F6F"></path><path d="M233.14,239.36a3.45,3.45,0,1,1-4.88,4.89l-2.13-2.13a7.53,7.53,0,0,1,1.14-7.48,3.37,3.37,0,0,1,2.13,1Z" style="fill:#E83F6F"></path><path d="M226.32,238a4,4,0,0,1,1.42,5.44l-6.87-4A4,4,0,0,1,226.32,238Z" style="fill:#E83F6F"></path><path d="M229,237.54a2.57,2.57,0,0,1,2-3l1,5A2.58,2.58,0,0,1,229,237.54Z" style="fill:#E83F6F"></path><path d="M239.27,250.38C236,247.75,230,249,227.33,253,233,254.05,245.36,255.31,239.27,250.38Z" style="fill:#E83F6F"></path><path d="M259.25,270.33c-2.41-1.95-6.87-1.06-8.88,2C254.59,273.05,263.77,274,259.25,270.33Z" style="fill:#E83F6F"></path><path d="M248.61,259.56c-2.18-2.69-1.19-7.68,2.19-9.94C251.66,254.35,252.71,264.62,248.61,259.56Z" style="fill:#E83F6F"></path><path d="M226.13,242.12l-1.62-1.62a3.46,3.46,0,0,1,0-4.88,3.41,3.41,0,0,1,2.76-1A7.53,7.53,0,0,0,226.13,242.12Z" style="opacity:0.2"></path></g><g id="freepik--Table--inject-3"><path d="M260.13,403.4h16.56a14.63,14.63,0,0,1,8.51,2.86l9.82,7c.85.6.54,2.42-.4,2.42H242.2c-.95,0-1.25-1.82-.4-2.42l9.82-7A14.61,14.61,0,0,1,260.13,403.4Z" style="fill:#E83F6F"></path><rect x="204.34" y="342.35" width="128.14" height="6.09" transform="translate(613.8 76.98) rotate(90)" style="fill:#E83F6F"></rect><rect x="264" y="282.69" width="8.82" height="6.09" transform="translate(554.14 17.32) rotate(90)" style="opacity:0.30000000000000004"></rect><rect x="181.55" y="277.47" width="173.72" height="7.71" style="fill:#E83F6F"></rect><rect x="181.55" y="277.47" width="61.07" height="7.71" style="opacity:0.30000000000000004"></rect></g><g id="freepik--character-1--inject-3"><path d="M276.69,400.34a12.61,12.61,0,0,1-2.14,1.71.26.26,0,0,1-.27,0,.22.22,0,0,1-.11-.23c.07-.4.69-3.95,1.92-4.45a.9.9,0,0,1,.85.09,1.33,1.33,0,0,1,.69,1.13A2.73,2.73,0,0,1,276.69,400.34Zm-1.92,1c1.49-1.05,2.37-2.05,2.37-2.74a.88.88,0,0,0-.48-.74.38.38,0,0,0-.37-.05C275.64,398.06,275.06,399.92,274.77,401.33Z" style="fill:#E83F6F"></path><path d="M274.6,402a.26.26,0,0,1-.11.07.25.25,0,0,1-.24-.05c-.1-.08-2.31-2-2.29-3.45a1.2,1.2,0,0,1,.46-.95.91.91,0,0,1,1.08-.15c1,.59,1.41,3.36,1.16,4.43A.21.21,0,0,1,274.6,402Zm-1.93-3.95a.7.7,0,0,0-.21.52c0,.86,1.07,2.1,1.78,2.78.08-1.2-.37-3.12-1-3.48-.1-.06-.25-.1-.49.1A.6.6,0,0,0,272.67,398.06Z" style="fill:#E83F6F"></path><polygon points="266.32 410.31 273.37 402.95 256.26 386.68 249.21 394.04 266.32 410.31" style="fill:#ff8b7b"></polygon><path d="M272.93,401.7,265,410a.76.76,0,0,0,0,1l6,6.88a1.74,1.74,0,0,0,2.51,0c2.7-2.93,3.86-4.47,7.34-8.11,2.14-2.24,5.52-5.3,8.48-8.39s-.09-6-1.61-5c-6.83,4.64-9.5,4-13.08,4.47A2.77,2.77,0,0,0,272.93,401.7Z" style="fill:#263238"></path><polygon points="249.21 394.05 256.26 386.68 265.08 395.07 258.03 402.44 249.21 394.05" style="opacity:0.2"></polygon><path d="M159.76,300.3c18.41.91,55.42,15.3,58.62,21.79,10.2,20.68,51.54,74.77,44.2,67.55l-10.86,8.79c5.88,4.37-49.2-43.37-50.42-65-18.39-1.07-43.29-1.58-53.74-8.64-7.21-4.87-9.38-15-8-24.32C139.53,300.46,141.36,299.38,159.76,300.3Z" style="fill:#263238"></path><polygon points="265.91 389.72 253.15 402 248.51 397.85 262.23 383.73 265.91 389.72" style="fill:#263238"></polygon><path d="M214.72,411.06a11.58,11.58,0,0,1-2.64-.37.21.21,0,0,1-.16-.19.31.31,0,0,1,.15-.25c.38-.23,3.77-2.22,4.88-1.69a.7.7,0,0,1,.38.68,1.65,1.65,0,0,1-.59,1.29A3.32,3.32,0,0,1,214.72,411.06Zm-1.91-.71c1.72.35,3.07.29,3.65-.18a1,1,0,0,0,.38-.86.3.3,0,0,0-.16-.31C216.1,408.72,214.19,409.58,212.81,410.35Z" style="fill:#E83F6F"></path><path d="M212.13,410.7a.15.15,0,0,1-.11,0,.18.18,0,0,1-.09-.2c0-.13.47-3.06,1.72-4a1.4,1.4,0,0,1,1.07-.33.71.71,0,0,1,.71.68c.06,1.15-2.12,3.34-3.17,3.9A.31.31,0,0,1,212.13,410.7Zm2.35-4.13a.83.83,0,0,0-.56.21c-.75.58-1.22,2.23-1.43,3.21,1.09-.78,2.49-2.43,2.45-3.13,0-.11-.05-.25-.35-.29Z" style="fill:#E83F6F"></path><path d="M161.79,212c-.35,6.42.14,21.89-5.1,25.5,0,0-1.08,5.09,10.11,6.6,12.29,1.67,7.42-5.54,7.42-5.54-4.29-2.21-3.65-11.16-1.29-15.86Z" style="fill:#ff8b7b"></path><path d="M181.24,205.84a.43.43,0,0,1-.22-.06.49.49,0,0,1-.18-.66,4.83,4.83,0,0,1,3.63-2.5.49.49,0,0,1,.06,1h0a3.8,3.8,0,0,0-2.85,2A.48.48,0,0,1,181.24,205.84Z" style="fill:#263238"></path><path d="M184.66,211.31a22.08,22.08,0,0,0,3.3,5,3.5,3.5,0,0,1-2.88.77Z" style="fill:#ff5652"></path><path d="M183.82,210c.06.82.54,1.45,1.08,1.41s.92-.73.86-1.55-.55-1.45-1.08-1.41S183.76,209.13,183.82,210Z" style="fill:#263238"></path><path d="M184.45,208.46l1.92-.71S185.48,209.36,184.45,208.46Z" style="fill:#263238"></path><polygon points="200.46 410.46 210.65 410.46 215.3 386.85 205.1 386.85 200.46 410.46" style="fill:#ff8b7b"></polygon><path d="M211.49,409.28H200a1,1,0,0,0-.92.69L196.47,419a1.4,1.4,0,0,0,1.37,1.82c4-.07,6-.31,11-.31,3.1,0,7.58.33,11.86.33s5.14-4.24,3.41-4.62c-7.73-1.72-8.64-4.09-11-6.35A2.28,2.28,0,0,0,211.49,409.28Z" style="fill:#263238"></path><polygon points="205.1 386.85 215.3 386.85 212.9 399.02 202.7 399.02 205.1 386.85" style="opacity:0.2"></polygon><path d="M157,245c.23.56.57,1.3.87,2s.62,1.36,1,2q1,2,2.06,4a66.31,66.31,0,0,0,4.6,7.55,38,38,0,0,0,5.43,6.31c.49.44,1,.84,1.48,1.22.25.17.5.38.75.52l.38.24.19.13c.08.05,0,0,0,0a3.88,3.88,0,0,0-.49-.06,2.28,2.28,0,0,0-1.08.22c-.31.17-.42.28-.45.34s.05,0,.14-.15a10.68,10.68,0,0,0,1.25-3.09c.37-1.32.65-2.76.91-4.22.5-2.95.81-6,1.08-9.12.49-6.19.76-12.53.91-18.8l5.15-.34a164.71,164.71,0,0,1,1.53,19.38,97.77,97.77,0,0,1-.29,9.93,46.63,46.63,0,0,1-.72,5.18A27.57,27.57,0,0,1,181,271a15.75,15.75,0,0,1-1.32,3.07,10.07,10.07,0,0,1-1.28,1.76,8,8,0,0,1-2.37,1.74,7.18,7.18,0,0,1-3.41.64,8,8,0,0,1-2.77-.71l-.52-.24-.33-.17-.66-.36c-.44-.23-.84-.5-1.26-.75a26.92,26.92,0,0,1-2.33-1.65,42.35,42.35,0,0,1-7.45-7.73,77.33,77.33,0,0,1-5.6-8.58c-.81-1.48-1.57-3-2.3-4.49-.37-.76-.72-1.53-1.07-2.3s-.64-1.52-1-2.43Z" style="fill:#ff8b7b"></path><path d="M155.18,237.5c4.93,1.72,10.49,17.84,10.49,17.84l-17.3,7.31s-7.6-13.52-5.42-18.72C145.22,238.52,149.21,235.42,155.18,237.5Z" style="fill:#E83F6F"></path><path d="M179.08,236.44l6.45-3.69-3.6-5.33s-8.69,3.61-5.67,7.93Z" style="fill:#ff8b7b"></path><polygon points="187.14 227.42 184.07 222.88 181.93 227.42 185.53 232.75 187.14 227.42" style="fill:#ff8b7b"></polygon><path d="M184.07,222.88l-2.14,4.54s-4.87,2-6.05,4.85l7.41-2.84,2.24-4.39Z" style="opacity:0.2"></path><path d="M193.81,251.72c-.73,8.62-6.9,25.59-14,48.58H138.37c.61-14.85,4.56-25.4,3.31-51.73-.32-6.54,3.73-12.41,10.28-12.77,1.75-.1,3.58-.16,5.41-.15a132,132,0,0,1,18.78.93c2.4.34,4.88.78,7.19,1.24A13.05,13.05,0,0,1,193.81,251.72Z" style="fill:#E83F6F"></path><path d="M186.5,255.38c-1.05,4.18.39,11,2.77,15,1-3.18,1.84-6.07,2.53-8.68A28.25,28.25,0,0,0,186.5,255.38Z" style="opacity:0.2"></path><path d="M191.25,244.73c3.86,3.75,7.92,7.54,12,11.17,2,1.81,4.11,3.58,6.18,5.27s4.19,3.34,6.31,4.8c.52.36,1.06.75,1.58,1l1.49.92a5.15,5.15,0,0,0,2.11.66,15,15,0,0,0,6.32-1.09,45.3,45.3,0,0,0,6.93-3.29c1.14-.67,2.29-1.35,3.41-2.08s2.26-1.51,3.29-2.23l3.57,3.73c-1,1.19-2,2.2-3.06,3.23s-2.14,2-3.29,3a42.4,42.4,0,0,1-7.57,5.08,22.2,22.2,0,0,1-9.86,2.72,14.05,14.05,0,0,1-6-1.26l-.37-.17-.25-.13-.52-.27-1-.55c-.7-.36-1.33-.76-2-1.15a111.92,111.92,0,0,1-14.05-10.38c-4.39-3.7-8.54-7.51-12.59-11.65Z" style="fill:#ff8b7b"></path><path d="M182.18,237.7c5.15-.83,18.52,12.69,18.52,12.69l-7.45,16.93S175,254.78,174.48,249.17C173.9,243.33,175.94,238.7,182.18,237.7Z" style="fill:#E83F6F"></path><path d="M242.11,265.5l8.43-.81-3.32-8.12S241,258.38,238.8,262Z" style="fill:#ff8b7b"></path><polygon points="256.52 263.4 253.79 257.5 247.22 256.57 250.53 264.69 256.52 263.4" style="fill:#ff8b7b"></polygon><path d="M156,209.17c1.36,10,1.72,14.3,7.19,19.09,8.22,7.21,20.24,3.35,21.9-6.88,1.5-9.21-1-24.06-11.13-27.34A13.8,13.8,0,0,0,156,209.17Z" style="fill:#ff8b7b"></path><path d="M174.39,197.17c3.26,1.36,7.15,8.66,6.39,13.66s-5.54,14,.6,17.76c0,0-11.07,6.18-30.65.7-6.19-1.73-6.35-5.75-6.35-5.75s7.5-3.24,5.07-8.52-3.92-16.43,2.7-17.85c1-6,17.31-8.11,24.62-2.57S174.39,197.17,174.39,197.17Z" style="fill:#263238"></path><path d="M168.74,198.05c4.69,4.95,17.32,3.6,15.71-.71s-7.35-5.47-7.35-5.47,2.09,2.56-4.83.52S166,195.11,168.74,198.05Z" style="fill:#263238"></path><path d="M181.28,211.48a8.48,8.48,0,0,1,.56,5.61c-.64,2.48-2.85,2.3-4.26.44-1.27-1.68-2.47-5-1.08-6.91S180.26,209.37,181.28,211.48Z" style="fill:#ff8b7b"></path><path d="M186.75,300.3c18.4.91,48.52,4.93,46.64,18.87-4.3,31.95-18.16,77.5-18.16,77.5h-13.9s1.56-54,7.87-64.32c-18.17,1-40.84-.68-51.5-7.44-9-5.72-12.35-15.15-11-24.45C146.7,300.46,168.34,299.38,186.75,300.3Z" style="fill:#E83F6F"></path><polygon points="217.06 396.94 199.35 396.94 200.13 390.73 219.04 390.1 217.06 396.94" style="fill:#263238"></polygon><path d="M137.75,297.87l-1.87,3.7c-.14.29.2.58.68.58H180c.37,0,.68-.18.71-.41l.37-3.71c0-.26-.3-.47-.71-.47H138.43A.76.76,0,0,0,137.75,297.87Z" style="fill:#263238"></path><path d="M143.38,302.56h-1.12c-.22,0-.39-.12-.38-.26l.53-4.82c0-.14.21-.25.43-.25H144c.22,0,.39.11.37.25l-.52,4.82C143.8,302.44,143.61,302.56,143.38,302.56Z" style="fill:#E83F6F"></path><path d="M170.6,302.56h-1.12c-.22,0-.4-.12-.38-.26l.53-4.82c0-.14.21-.25.43-.25h1.12c.23,0,.4.11.38.25L171,302.3C171,302.44,170.83,302.56,170.6,302.56Z" style="fill:#E83F6F"></path><path d="M207.49,329.77c0-.07,0-.14,0-.21l2.61-16.44a3,3,0,0,0-3-3.56H178.7l-6.8-44.94a5,5,0,0,0-4.76-4.13H121.67a3.46,3.46,0,0,0-3.5,4.13l9.38,61.93a5,5,0,0,0,4.76,4.13h.86l.86,2.87a4.53,4.53,0,0,0,4.33,3.22h72.3A9.29,9.29,0,0,0,207.49,329.77Z" style="fill:#E83F6F"></path><path d="M207.49,329.77c0-.07,0-.14,0-.21l2.61-16.44a3,3,0,0,0-3-3.56H178.7l-6.8-44.94a5,5,0,0,0-4.76-4.13H121.67a3.46,3.46,0,0,0-3.5,4.13l9.38,61.93a5,5,0,0,0,4.76,4.13h.86l.86,2.87a4.53,4.53,0,0,0,4.33,3.22h72.3A9.29,9.29,0,0,0,207.49,329.77Z" style="opacity:0.30000000000000004"></path><polygon points="160.04 420.87 156.87 420.87 161.22 336.76 164.39 336.76 160.04 420.87" style="fill:#E83F6F"></polygon><polygon points="160.04 420.87 156.87 420.87 161.22 336.76 164.39 336.76 160.04 420.87" style="fill:#fff;opacity:0.5"></polygon><polygon points="207.29 420.87 210.47 420.87 206.12 336.76 202.95 336.76 207.29 420.87" style="fill:#E83F6F"></polygon><polygon points="207.29 420.87 210.47 420.87 206.12 336.76 202.95 336.76 207.29 420.87" style="fill:#fff;opacity:0.5"></polygon><polygon points="140.17 420.87 136.99 420.87 141.34 336.76 144.51 336.76 140.17 420.87" style="fill:#E83F6F"></polygon><polygon points="140.17 420.87 136.99 420.87 141.34 336.76 144.51 336.76 140.17 420.87" style="fill:#fff;opacity:0.5"></polygon><polygon points="187.42 420.87 190.59 420.87 186.25 336.76 183.07 336.76 187.42 420.87" style="fill:#E83F6F"></polygon><polygon points="187.42 420.87 190.59 420.87 186.25 336.76 183.07 336.76 187.42 420.87" style="fill:#fff;opacity:0.5"></polygon></g><g id="freepik--Love--inject-3"><circle cx="249.82" cy="125.91" r="46.56" style="fill:#fff"></circle><circle cx="249.82" cy="125.91" r="46.56" style="fill:#E83F6F;opacity:0.2"></circle><circle cx="196.04" cy="178.94" r="7.88" transform="translate(-69.11 191.03) rotate(-45)" style="fill:#fff"></circle><circle cx="196.04" cy="178.94" r="7.88" transform="translate(-69.11 191.03) rotate(-45)" style="fill:#E83F6F;opacity:0.2"></circle><circle cx="215.31" cy="160.43" r="12.47" transform="translate(9.7 333.12) rotate(-76.72)" style="fill:#fff"></circle><circle cx="215.31" cy="160.43" r="12.47" transform="translate(9.7 333.12) rotate(-76.72)" style="fill:#E83F6F;opacity:0.2"></circle><path d="M290.55,170.07a4.87,4.87,0,1,0,5.75-3.78A4.88,4.88,0,0,0,290.55,170.07Z" style="fill:#fff"></path><path d="M290.55,170.07a4.87,4.87,0,1,0,5.75-3.78A4.88,4.88,0,0,0,290.55,170.07Z" style="fill:#E83F6F;opacity:0.2"></path><path d="M276.16,157.68a7.89,7.89,0,1,0,9.32-6.14A7.89,7.89,0,0,0,276.16,157.68Z" style="fill:#fff"></path><path d="M276.16,157.68a7.89,7.89,0,1,0,9.32-6.14A7.89,7.89,0,0,0,276.16,157.68Z" style="fill:#E83F6F;opacity:0.2"></path><path d="M223.54,135.27a20.36,20.36,0,0,1-5.3-9.23l1-.25a19.3,19.3,0,0,0,5,8.77Z" style="fill:#E83F6F"></path><path d="M218.59,120.89h-1a20.18,20.18,0,0,1,5.95-14.37l.71.7A19.21,19.21,0,0,0,218.59,120.89Z" style="fill:#E83F6F"></path><path d="M273.62,109a16.83,16.83,0,0,0-23.8,0,16.83,16.83,0,0,0-23.8,23.8l23.8,23.81,23.8-23.81A16.82,16.82,0,0,0,273.62,109Z" style="fill:#E83F6F"></path></g></svg>