<svg xmlns="http://www.w3.org/2000/svg" viewBox="0 0 500 500"><g id="freepik--Floor--inject-5"><ellipse id="freepik--floor--inject-5" cx="249.86" cy="362.68" rx="214.61" ry="118.82" style="fill:#ebebeb"></ellipse></g><g id="freepik--Shadows--inject-5"><g style="opacity:0.1"><ellipse id="freepik--Shadow--inject-5" cx="216.2" cy="401.7" rx="69.35" ry="35.13"></ellipse><path id="freepik--shadow--inject-5" d="M322.54,404.9c-24.47,12.39-64.14,12.39-88.61,0s-24.47-32.49,0-44.89,64.14-12.39,88.61,0S347,392.5,322.54,404.9Z"></path></g></g><g id="freepik--Plants--inject-5"><g id="freepik--plants--inject-5"><path d="M384.5,298.39l-7.9-4.57s-4.71-19.54-2.83-37.13c2.63-24.72,18.91-34,25.1-31.89s8,9.32-2.26,24C390.57,257.54,383.14,275.64,384.5,298.39Z" style="fill:#E83F6F"></path><g style="opacity:0.15"><path d="M384.5,298.39l-7.9-4.57s-4.71-19.54-2.83-37.13c2.63-24.72,18.91-34,25.1-31.89s8,9.32-2.26,24C390.57,257.54,383.14,275.64,384.5,298.39Z"></path></g><path d="M381.22,288.79h.08a.55.55,0,0,0,.44-.64c-4.34-22.81,3.63-48.43,13.5-59.1a.55.55,0,0,0-.81-.74c-10,10.86-18.17,36.9-13.77,60A.55.55,0,0,0,381.22,288.79Z" style="fill:#fff"></path><path d="M405.2,310.35c1.25.63,4.57-2.21,5.5-2.9a11.67,11.67,0,0,0,3.63-4.62,10.84,10.84,0,0,0,.63-6.56,25.28,25.28,0,0,0-1-3.42l-1.14-3.32a8.58,8.58,0,0,1-.66-3.37c.18-2.31,2.14-4,3.93-5.51,2-1.64,4-3.78,3.86-6.55a9.81,9.81,0,0,0-2.74-5.68c-1.41-1.61-3-3-4.34-4.72a6.85,6.85,0,0,1-1.61-4.23,7.16,7.16,0,0,1,.8-2.74,37.1,37.1,0,0,0,2.67-5.54c.58-2,.36-4.38-1.22-5.69a6.36,6.36,0,0,0-4.83-.94,11,11,0,0,0-4.35,1.78c-4.27,2.67-6.52,8-11.09,10.12a46,46,0,0,1-5.58,1.67,7,7,0,0,0-4.5,3.42c-1.54,3.51,1.86,7.56.83,11.26-.9,3.26-4,4.65-5.57,7.64a6.93,6.93,0,0,0-.61,4.24,20.23,20.23,0,0,0,2.14,7,61.89,61.89,0,0,0,4.22,6.49Z" style="fill:#E83F6F"></path><path d="M393.11,304h0a.54.54,0,0,0,.5-.6c-2-21.69,7-46.2,14.13-53.55a.55.55,0,0,0,0-.78.56.56,0,0,0-.78,0c-7.24,7.49-16.46,32.42-14.43,54.42A.54.54,0,0,0,393.11,304Z" style="fill:#fff"></path><path d="M395.26,277.3l.16,0a73.94,73.94,0,0,1,15.65-3.34.55.55,0,0,0-.1-1.09,75.13,75.13,0,0,0-15.93,3.4.55.55,0,0,0,.22,1.07Z" style="fill:#fff"></path></g><g id="freepik--plants--inject-5"><path d="M109.22,298.39l7.9-4.57s4.71-19.54,2.83-37.13c-2.63-24.72-18.91-34-25.1-31.89s-8,9.32,2.26,24C103.15,257.54,110.58,275.64,109.22,298.39Z" style="fill:#E83F6F"></path><g style="opacity:0.15"><path d="M109.22,298.39l7.9-4.57s4.71-19.54,2.83-37.13c-2.63-24.72-18.91-34-25.1-31.89s-8,9.32,2.26,24C103.15,257.54,110.58,275.64,109.22,298.39Z"></path></g><path d="M112.5,288.79h-.08a.55.55,0,0,1-.44-.64c4.34-22.81-3.63-48.43-13.5-59.1a.55.55,0,0,1,.81-.74c10,10.86,18.17,36.9,13.77,60A.55.55,0,0,1,112.5,288.79Z" style="fill:#fff"></path><path d="M88.52,310.35c-1.25.63-4.57-2.21-5.5-2.9a11.67,11.67,0,0,1-3.63-4.62,10.84,10.84,0,0,1-.63-6.56,23.92,23.92,0,0,1,1-3.42c.38-1.11.76-2.22,1.13-3.32a8.41,8.41,0,0,0,.67-3.37c-.18-2.31-2.14-4-3.93-5.51-2-1.64-4-3.78-3.86-6.55a9.81,9.81,0,0,1,2.74-5.68c1.41-1.61,3-3,4.34-4.72a6.85,6.85,0,0,0,1.61-4.23,7.16,7.16,0,0,0-.8-2.74A37.1,37.1,0,0,1,79,251.19c-.58-2-.36-4.38,1.22-5.69a6.35,6.35,0,0,1,4.82-.94,11,11,0,0,1,4.36,1.78c4.27,2.67,6.52,8,11.09,10.12a46,46,0,0,0,5.58,1.67,7,7,0,0,1,4.5,3.42c1.54,3.51-1.86,7.56-.83,11.26.9,3.26,4,4.65,5.57,7.64a6.85,6.85,0,0,1,.6,4.24,20,20,0,0,1-2.13,7,61.89,61.89,0,0,1-4.22,6.49Z" style="fill:#E83F6F"></path><path d="M100.61,304h0a.54.54,0,0,1-.5-.6c2-21.69-7-46.2-14.13-53.55a.55.55,0,0,1,0-.78.56.56,0,0,1,.78,0c7.24,7.49,16.46,32.42,14.43,54.42A.54.54,0,0,1,100.61,304Z" style="fill:#fff"></path><path d="M98.46,277.3l-.16,0a73.94,73.94,0,0,0-15.65-3.34.55.55,0,0,1,.1-1.09,75.13,75.13,0,0,1,15.93,3.4.55.55,0,0,1-.22,1.07Z" style="fill:#fff"></path></g></g><g id="freepik--Charactes--inject-5"><g id="freepik--character-boy--inject-5"><polygon points="312.2 378.06 299.78 378.06 298.12 356.56 312.2 359.97 312.2 378.06" style="fill:#ffa8a7"></polygon><path d="M283.16,397.91c-.44.41-.35,2.65.14,3.41s3.45,3.5,8.82,3.89c5.14.37,9.51-.26,12.52-2.18s4.49-4.19,4.77-7.12-.07-5.41,1.32-7.66c1.29-2.08,4-4.69,4.32-5.85.62-2-.17-5.48-.17-5.48Z" style="fill:#263238"></path><path d="M297.22,372.36a11.65,11.65,0,0,1-.59,3.26,30,30,0,0,1-3.15,6.44,27.5,27.5,0,0,1-2.14,3c-1.56,1.85-3.49,3.37-5.13,5.14a10.49,10.49,0,0,0-3.17,6.31c-.22,4,4.15,5.4,7.52,6A24.81,24.81,0,0,0,301.5,402a10.07,10.07,0,0,0,7.37-8c.18-1.12.12-2.27.25-3.39a15.79,15.79,0,0,1,3.13-7.05,21.68,21.68,0,0,0,2.41-3.84c1-2.49.2-5.3-.47-7.78-.58-2.15-1.23-4.58-2-4.37,0,1.11,0,1.22-.79,2-1,.95-1.06,2.39-2.12,3.23a15,15,0,0,0,.75-2.87,1.67,1.67,0,0,0-.23-1.14,3.19,3.19,0,0,0-1.24-.66,24.75,24.75,0,0,0-4.89-1.11,14.75,14.75,0,0,0-4.78,0,2.13,2.13,0,0,0-1.2.7,2.46,2.46,0,0,0-.43,1.38C297.2,369.63,297.25,371.29,297.22,372.36Z" style="fill:#E83F6F"></path><path d="M297.22,372.36a11.65,11.65,0,0,1-.59,3.26,30,30,0,0,1-3.15,6.44,27.5,27.5,0,0,1-2.14,3c-1.56,1.85-3.49,3.37-5.13,5.14a10.49,10.49,0,0,0-3.17,6.31c-.22,4,4.15,5.4,7.52,6A24.81,24.81,0,0,0,301.5,402a10.07,10.07,0,0,0,7.37-8c.18-1.12.12-2.27.25-3.39a15.79,15.79,0,0,1,3.13-7.05,21.68,21.68,0,0,0,2.41-3.84c1-2.49.2-5.3-.47-7.78-.58-2.15-1.23-4.58-2-4.37,0,1.11,0,1.22-.79,2-1,.95-1.06,2.39-2.12,3.23a15,15,0,0,0,.75-2.87,1.67,1.67,0,0,0-.23-1.14,3.19,3.19,0,0,0-1.24-.66,24.75,24.75,0,0,0-4.89-1.11,14.75,14.75,0,0,0-4.78,0,2.13,2.13,0,0,0-1.2.7,2.46,2.46,0,0,0-.43,1.38C297.2,369.63,297.25,371.29,297.22,372.36Z" style="opacity:0.5"></path><path d="M292.94,382.9c1.5-1.12,4.86-1.14,6.7-.94a11.17,11.17,0,0,1,5.22,1.84,1.2,1.2,0,0,0,1.54-.13h0a1.12,1.12,0,0,0-.11-1.71,11.48,11.48,0,0,0-5.88-2.18c-4.53-.32-5.85.46-5.85.46S292.49,381.57,292.94,382.9Z" style="fill:#263238"></path><path d="M289.49,387c1.88-1.11,5.58-.95,7.42-.76a10.51,10.51,0,0,1,5.08,1.94,1.21,1.21,0,0,0,1.54-.12h0a1.13,1.13,0,0,0-.11-1.72,11.84,11.84,0,0,0-6-2.35c-4.53-.32-5.7.61-5.7.61A3.74,3.74,0,0,0,289.49,387Z" style="fill:#263238"></path><path d="M302.21,375.45a11.26,11.26,0,0,0-5.69.48c-.8.45-1.32,1.71-.81,2a10.4,10.4,0,0,1,5-.7,15,15,0,0,1,4.9,1.35c.38.17.84.41,1.24.63a1.07,1.07,0,0,0,1.49-.46h0a1,1,0,0,0-.39-1.29A14.43,14.43,0,0,0,302.21,375.45Z" style="fill:#263238"></path><polygon points="268.24 356.81 255.07 350.87 255.07 332.06 269.82 331.87 269.35 346.46 268.24 356.81" style="fill:#ffa8a7"></polygon><path d="M226.52,369.65a4.9,4.9,0,0,0,.2,3.59c.5,1.05,6.71,3.61,14.1,3.11a28,28,0,0,0,14.56-4.82c2.82-1.86,5.76-2.21,9.42-2.42s8.47-2,9.27-3.75-.12-4.66-.12-4.66Z" style="fill:#263238"></path><path d="M256.35,346.58l-.58-.13a2.5,2.5,0,0,0-1-.05,1.89,1.89,0,0,0-.91.62,18.85,18.85,0,0,0-1.89,3c-1.55,2.53-4.8,4.62-8.35,6.53-2.42,1.3-4.78,2.31-7.28,3.43s-5.92,1.84-7.91,3.19c-2.9,1.95-3.28,6.86,0,8.8,2.85,1.68,10.35,3.49,18.22,1.26,4.29-1.21,9.05-5.79,14.68-6.23,3.57-.28,10.34-1.29,12.64-4,.85-1.21-.28-5-1.22-8.33-1-3.6-2.23-9.24-3.42-8.92-.17,2.39-3.26,2.77-5.11,2.74C261.52,348.41,259,347.15,256.35,346.58Z" style="fill:#E83F6F"></path><path d="M256.35,346.58l-.58-.13a2.5,2.5,0,0,0-1-.05,1.89,1.89,0,0,0-.91.62,18.85,18.85,0,0,0-1.89,3c-1.55,2.53-4.8,4.62-8.35,6.53-2.42,1.3-4.78,2.31-7.28,3.43s-5.92,1.84-7.91,3.19c-2.9,1.95-3.28,6.86,0,8.8,2.85,1.68,10.35,3.49,18.22,1.26,4.29-1.21,9.05-5.79,14.68-6.23,3.57-.28,10.34-1.29,12.64-4,.85-1.21-.28-5-1.22-8.33-1-3.6-2.23-9.24-3.42-8.92-.17,2.39-3.26,2.77-5.11,2.74C261.52,348.41,259,347.15,256.35,346.58Z" style="opacity:0.5"></path><path d="M247,354.57a3.32,3.32,0,0,1,2.64-1.77c1.63-.3,4.5.9,6.29,2.37a1.33,1.33,0,0,1-.19,2.2h0a1.33,1.33,0,0,1-1.53-.16A10.18,10.18,0,0,0,247,354.57Z" style="fill:#263238"></path><path d="M241.93,357.39a3.82,3.82,0,0,1,3.13-1.61s4.26.12,6.89,2.58a1.31,1.31,0,0,1-.18,2.13h0a1.29,1.29,0,0,1-1.47-.17A10.26,10.26,0,0,0,241.93,357.39Z" style="fill:#263238"></path><path d="M236.36,359.94a4.28,4.28,0,0,1,3.25-1.46,11.46,11.46,0,0,1,6.6,2.61,1.31,1.31,0,0,1-.18,2.13h0a1.28,1.28,0,0,1-1.47-.17A9.77,9.77,0,0,0,236.36,359.94Z" style="fill:#263238"></path><path d="M311.47,177.74c1,13.46,2.26,89.67,2.26,89.67.29,3.42,2.77,14.13,2.08,27.24-.94,17.8-3.61,68.12-3.61,68.12s-4.8,4.13-13.54.79c0,0-10.72-74.22-12.94-91.87-2-15.4-4.65-49.86-4.65-49.86l-3.41,42.9s1,12.37,0,21.37c-.94,8.13-8.23,57.76-8.23,57.76a22.47,22.47,0,0,1-14.36-.33s-3.86-70.67-4.46-78.14c-.82-10.34.08-86.82.08-86.82Z" style="fill:#37474f"></path><path d="M280.44,214.83s-9.89-3.17-17.26-10.29c0,0,3.34,6.25,13.26,12.06L278,258.11l3-36.28Z" style="fill:#263238"></path><path d="M291.56,102.21c.94.23,7.94,1.33,12.17,2.11,4.4.82,12.2,8.46,12.2,12.94l-5,41.86,1.61,35c-8.71,9.47-49.64,11-68.66-2.87,0,0-.42-45.69,1.84-60.67,3-20.09,12.39-26.63,27.24-27.5Z" style="fill:#E83F6F"></path><path d="M291.56,102.21c.94.23,7.94,1.33,12.17,2.11,4.4.82,12.2,8.46,12.2,12.94l-5,41.86,1.61,35c-8.71,9.47-49.64,11-68.66-2.87,0,0-.42-45.69,1.84-60.67,3-20.09,12.39-26.63,27.24-27.5Z" style="opacity:0.5"></path><path d="M311,159.12l4.39-37L314,122,281.07,164.3S258,178,256.28,178.82a74,74,0,0,0-6.87,5.55c0,4.74.09,7.75.09,7.75a40.06,40.06,0,0,0,6.84,4c7.27-3.69,34.07-15.68,38.38-19.83a86.91,86.91,0,0,0,9.86-12s0,5.1-.65,13.33-9.73,25-30.37,23.27l.21.15c16.74,1.65,33.58-1.17,38.81-6.86Z" style="opacity:0.05"></path><path d="M293.52,52.52a6.63,6.63,0,0,1,5.61,1.5c2.53,2.22,2.38,6.7,1.31,17l-7.18,1.39Z" style="fill:#263238"></path><path d="M251,52.83a11.37,11.37,0,0,1-4.61-.57c-2.32-1.11-2.71,1.46-1.32,3.57a10.41,10.41,0,0,0,8.84,5c0-.32,1.64-5.82,1.64-5.82Z" style="fill:#263238"></path><circle cx="263.16" cy="62.71" r="14.2" transform="translate(89.78 270.37) rotate(-63.54)" style="fill:#263238"></circle><path d="M291.65,72.58c1.12.56,1.77-1.74,3-3.23s6.13-3.61,8.65.78-1.08,10.92-4.41,12.25C293.14,84.68,292,81,292,81l-.41,21.23a20.6,20.6,0,0,1-14.08,11.17c-10.31,2.22-7.58-5.78-4.48-10.26l.51-6.45s-5.26,1.22-7.89,1c-4.38-.34-7.24-1.17-9.32-6-3.06-7.21-4.52-17.44-4-30.73.6-16.36,20.56-17.58,31.22-12S291.65,72.58,291.65,72.58Z" style="fill:#f28f8f"></path><path d="M271.28,71.5a3.19,3.19,0,0,0,6.2-.37,4.64,4.64,0,0,1-3,1.37A4.7,4.7,0,0,1,271.28,71.5Z" style="fill:#263238"></path><path d="M255.51,73.18a3.2,3.2,0,0,0,6.17-.78A4.63,4.63,0,0,1,258.75,74,4.72,4.72,0,0,1,255.51,73.18Z" style="fill:#263238"></path><path d="M273.64,64.56l4.52,1.6A2.51,2.51,0,0,0,276.65,63,2.34,2.34,0,0,0,273.64,64.56Z" style="fill:#263238"></path><path d="M272.79,85.33l-4.34,2a2.35,2.35,0,0,0,3.14,1.25A2.52,2.52,0,0,0,272.79,85.33Z" style="fill:#b16668"></path><path d="M255,68l3.59-3.22a2.32,2.32,0,0,0-3.36-.26A2.53,2.53,0,0,0,255,68Z" style="fill:#263238"></path><polygon points="266.68 70.63 266.93 82.44 260.63 80.81 266.68 70.63" style="fill:#b16668"></polygon><path d="M291.33,75.61c.43-.33,1.49-4.84,4-6.91,1.95-1.59-1.85-16.18-1.85-16.18S295,46.58,291,43s-11-2.36-16.24-2.15c-5.42.22-11.24.34-18.86-2.3s-8.21-3-8.88.34-.44,10.76,4.35,15.4l3.77,1.06s2.11,1.61,9.06,1.92A72.08,72.08,0,0,0,279.76,56c2-.42,4.21.81,5.37,7.06C286,67.7,286.74,79.18,291.33,75.61Z" style="fill:#263238"></path><path d="M293.6,53.71l6.24-4a3.6,3.6,0,0,0-5-1.25A3.9,3.9,0,0,0,293.6,53.71Z" style="fill:#263238"></path><path d="M273.51,96.67s7-2.44,10.25-4.49a11.23,11.23,0,0,0,4.31-5,15.39,15.39,0,0,1-2.23,5.64c-2.23,3.35-12.13,6.39-12.13,6.39Z" style="fill:#b16668"></path></g><path d="M210.46,166.14c-7.06-.13-14.57-1.21-20.08-5.61-6.09-4.86-9.8-12.7-8.14-20.23,1.71-7.8,6.38-11.56,10.81-16.64,9.91-11.38,9.12-23.76,9.12-36.46a26.59,26.59,0,0,1,26.59-26.59H231a26.56,26.56,0,0,1,21.33,10.71c.69,9.28,2,17.52,5.26,22.67v12.38A74.7,74.7,0,0,1,254,129.79c-3.58,11-9.35,21-16.56,27.5S220,166.33,210.46,166.14Z" style="fill:#263238"></path><path d="M201.51,161.55s-9.58,13.47-11.42,19.16c-1,3-1,6.35,3,7.41s19.56-14,19.56-14Z" style="fill:#ffa8a7"></path><path d="M215.49,118.37c-4.89-.86-11.36-.91-15.5,4.9-3.76,5.29-4.29,26.23-4.29,26.23Z" style="fill:#ffa8a7"></path><path d="M206.83,74a3.62,3.62,0,1,1-6-4Z" style="fill:#263238"></path><path d="M207.38,74.12a3.62,3.62,0,1,1-.48-7.22Z" style="fill:#263238"></path><path d="M195.15,370.92V369c-.74,2.2-8.92,10.34-16.21,14.12-5.26,2.73-11.78,5.37-12.44,9.12-.79,4.55,3.47,7,11.63,7.12,9.2.2,14.37-5,18.21-8.22a46.57,46.57,0,0,1,7.74-5.1c2.43-1.32,5.38-2.59,6.24-5.08.47-1.36.08-4.61-.31-7.14-.36-2.36-1-4.65-1.78-4.43,0,.28,0,1.12,0,1.12-1,1.05-3.54,2-6.51,2.14C199.79,372.76,195.14,372.38,195.15,370.92Z" style="fill:#37474f"></path><path d="M224.71,223.73c-3.05,16.78-6.13,34.21-9.17,50.61,1.44,8.75,2.09,11.62,2.56,22.9.76,17.82-8.66,45.26-9.85,64.41-.31,5,.1,5.5-.07,9.6,0,0,0,.27-.05.31-.25,2-6.51,6.23-9.7,9.05-4.38,3.87-9.12,7.78-16,8.8-5,.75-8.75,0-9.21-1.39-.27-.83,1.64-2.23,2.38-2.69a76.81,76.81,0,0,0,10.3-7.61c4.68-3.83,7.1-7.26,7.65-12.65.85-8.31-3.62-71.53-3.06-91.88.76-27.6,3-46.35,6.39-71.57.26-2,2.22-8.28,2.86-13.29a18.34,18.34,0,0,0,.15-3.9c-.15-1.46-.2-3.55-.22-5.78h0v1.1s6.92,5.87,22.12,6.05C235.16,186,243,182.25,246,180a55,55,0,0,0,3.44,8.44c2.64,5.41,5.77,10.74,7.37,15.73Z" style="fill:#ffa8a7"></path><path d="M251.72,381.56a106.55,106.55,0,0,1,1.1,11.57c.19,4.59,1.58,10.73,1.64,12.47.2,5.59-.52,12.85-4.07,17.37s-9.7,4.56-12.45-.82-2-14.13-1.31-19.59.74-7.08,1.08-11.45c.29-3.85.59-5.41,1-8.72C243,382.45,247.49,381.61,251.72,381.56Z" style="fill:#37474f"></path><path d="M222.22,225c1.18,15.54,5.33,48.51,6.11,63.28.9,16.91,8.29,70,8.41,70.76.66,5,1.76,15.25,2,22.63.19,6.4-.46,18.51.69,24.3,1.7,8.47,9.59,7.83,11.69-.29,1.4-5.41.24-17,.63-24.12.29-5.17,1.16-13.48,1.44-17.76.75-6.3,3.86-39.22,3-50.44-.74-9.62-2.12-17.61-3.16-26.52,5.3-26.95,8.14-55.48,3.79-82.72" style="fill:#ffa8a7"></path><path d="M246.73,169.9c1-3.93,3.54-10.35,3.88-18.79-6.29-9.76-7.66-19.82-2.93-30-5-.31-5.72-.33-10.75-.65s-13.19-1.14-17.3-1.38l-4.14-.69c-5.7,6.12-13.83,10.74-18.59,18.46-4.48,7.26-3.73,15.5,2.08,22.7.19,3.74.45,7.28.67,10.94l.17.07h-.17c0,2.15,0,5.23,0,8.11h0v1.1s6.92,5.87,22.12,6.05C235.16,186,243,182.25,246,180l-.18-.64C245.12,176.81,245.75,173.84,246.73,169.9Z" style="fill:#E83F6F"></path><path d="M246.73,169.9c1-3.93,3.54-10.35,3.88-18.79-6.29-9.76-7.66-19.82-2.93-30-5-.31-5.72-.33-10.75-.65s-13.19-1.14-17.3-1.38l-4.14-.69c-5.7,6.12-13.83,10.74-18.59,18.46-4.48,7.26-3.73,15.5,2.08,22.7.19,3.74.45,7.28.67,10.94l.17.07h-.17c0,2.15,0,5.23,0,8.11h0v1.1s6.92,5.87,22.12,6.05C235.16,186,243,182.25,246,180l-.18-.64C245.12,176.81,245.75,173.84,246.73,169.9Z" style="fill:#fff;opacity:0.8"></path><path d="M215,160.06s3.75,5.32,12.6,4.61S240.18,156,240.18,156s-1.15,9.83-11.08,11C217.19,168.32,215,160.06,215,160.06Z" style="opacity:0.05"></path><path d="M198.18,187.05c-1.7,11.44-10.64,63.92-11.49,78S182.41,343,182.41,343s7.9,16.6,41.92,18.55,47-13.12,47-13.12-2.57-70.05-4.56-95.29-5.08-46.92-15.87-65.61l-28,2.9Z" style="fill:#E83F6F"></path><path d="M237.05,207.07a34.35,34.35,0,0,1,4.32-1.36,115.28,115.28,0,0,1,16.47-3h0c-.91-2.57-1.92-5.08-3-7.55l-.09-.21c-.51-1.12-1.05-2.22-1.61-3.31-.07-.15-.14-.3-.22-.45-.62-1.22-1.28-2.42-2-3.61l0,0c-3.36.45-6.69,1.38-10,2.05a90.57,90.57,0,0,1-18.23,1.53c-3.1,0-6.2-.13-9.29-.29a28.4,28.4,0,0,1-4-.21c-1.55-.31-3-1.09-4.56-1.33a21.7,21.7,0,0,0-7,.34c-.63,4.05-1.66,10.35-2.84,17.67a13.47,13.47,0,0,0,6.31.14,1.26,1.26,0,0,1,.79,0,1.4,1.4,0,0,1,.44.4,14,14,0,0,0,6,4c7.36,2.89,15.22,1.64,22.22-1.59C232.83,209.24,234.85,208,237.05,207.07Z" style="opacity:0.07"></path><path d="M199.69,179.77s6.92,5.87,22.12,6c13.36.15,21.23-3.57,24.18-5.87l-.19-.63c.85-.07,2.88,4,5.09,8.17,0,0-10.31,7.37-27.68,7.37s-25-7.8-25-7.8.52-4.25.7-6c.29-2.78.79-2.44.79-2.44Z" style="fill:#E83F6F"></path><path d="M250.89,187.48s-.5.36-1.47.91c-3.41,2-12.66,6.46-26.2,6.46-12.92,0-20.47-4.31-23.49-6.52a14.22,14.22,0,0,1-1.55-1.29s.52-4.24.7-5.94c.26-2.51.7-2.47.78-2.45h0v1.1s6.92,5.87,22.12,6.05C235.16,186,243,182.25,246,180h0l-.19-.63C246.66,179.24,248.68,183.3,250.89,187.48Z" style="opacity:0.25"></path><path d="M217,216.26s-9.69,117.76-8.78,142.9c1.81.45,3.73.85,5.78,1.2C213.84,350.17,215,251.69,217,216.26Z" style="opacity:0.15"></path><path d="M238.71,361.29c-.29-16.42-2.15-114.82-5.82-140.16,0,0,2.56,53.75-.59,140.51C234.54,361.6,236.69,361.48,238.71,361.29Z" style="opacity:0.15"></path><path d="M260.55,355.68c-.28-13.48-2.5-103.08-12.3-147.18,0,0,10.15,75.53,7.32,149.21A52.37,52.37,0,0,0,260.55,355.68Z" style="opacity:0.15"></path><path d="M195.51,354.45c.23-10.61,1.75-78.29,4.32-118.16,0,0-7.92,70.65-9.26,115.17A42.61,42.61,0,0,0,195.51,354.45Z" style="opacity:0.15"></path><path d="M245.91,71.54c2.92,2.46,6.68,7.92,7.09,24.32.34,13.89-3.82,17.53-5.94,18.62s-5.92.69-10,.18V120s0,2.77-4,5.75c-3.1,2.28-9.69,4.5-13.34,1.93-3.23-2.29,0-8.66,0-8.66V105.28s-3.51,2.53-7.75-1c-3.49-2.89-4.87-8-2.38-10.87s7.34-2.36,9.38,1.49a32.43,32.43,0,0,0,15.47-5.08A25.25,25.25,0,0,0,245.91,71.54Z" style="fill:#ffa8a7"></path><path d="M237,114.66c-4.32-.39-13.69-2.61-15.23-6.17a9.43,9.43,0,0,0,3.31,4.49c2.75,2.22,11.92,4.48,11.92,4.48Z" style="fill:#f28f8f"></path><path d="M218.85,93.28l.2,5.87a2.75,2.75,0,0,0,2.75-2.92A3,3,0,0,0,218.85,93.28Z" style="fill:#263238"></path><path d="M236.89,93.28a2.87,2.87,0,0,1-5.57.45,4.22,4.22,0,0,0,5.57-.45Z" style="fill:#263238"></path><path d="M251.35,92a2.87,2.87,0,0,1-5.59.09,4.19,4.19,0,0,0,2.81,1A4.27,4.27,0,0,0,251.35,92Z" style="fill:#263238"></path><path d="M234.11,86.65l-3.82,2a2.27,2.27,0,0,1,.94-3A2.12,2.12,0,0,1,234.11,86.65Z" style="fill:#263238"></path><path d="M237.5,105.05l4.12,1.24A2.1,2.1,0,0,1,239,107.8,2.25,2.25,0,0,1,237.5,105.05Z" style="fill:#f28f8f"></path><path d="M251.13,87.35l-3.61-2.42a2.09,2.09,0,0,1,3-.65A2.27,2.27,0,0,1,251.13,87.35Z" style="fill:#263238"></path><polygon points="240.58 90.64 241.86 101.2 247.26 98.95 240.58 90.64" style="fill:#f28f8f"></polygon><g id="freepik--boy-arm--inject-5"><path d="M223.8,185.48c0,.1-1.05,2.23-9.3,3.42-11.19,1.61-11.95,4.38-4.68,11.16,4.59,4.28,11.26,3.36,25.42-.62a110.1,110.1,0,0,0,14.17-4.59c11.62-5,15.68-7.28,23.59-11.18s19.19-10.66,21.31-14c24.72-38.52,29-62.17,10.85-64.59-5.53,1.29-6.29,6.48-11.12,20.7,0,0-11.47,22.6-18.08,32.09-8.35,6.68-26.6,19.62-36.93,23-2.76.89-5.75-.31-8.5-.9a26.39,26.39,0,0,0-3.85-.62,25.77,25.77,0,0,0-3.83.14l-7.14.63a2.1,2.1,0,0,0-1.08.29,1.36,1.36,0,0,0-.46,1.44,2.67,2.67,0,0,0,.88,1.32,8.46,8.46,0,0,0,5.18,1.67C220.85,184.87,223.85,184.82,223.8,185.48Z" style="fill:#f28f8f"></path><path d="M235.24,199.44a110.1,110.1,0,0,0,14.17-4.59c11.21-4.85,15.39-7.13,22.78-10.78l-10.56-15.68c-3.06,2.06-6.23,4.1-9.33,6l.72,4.31s-10.76,7.56-18.5,10.48a9.71,9.71,0,0,1-3.4.52,57.7,57.7,0,0,0-6.69,1,28.54,28.54,0,0,1-8.65,0c-1.2-.3-1.34,1.31-.12,2.94a5.51,5.51,0,0,0,2.9,1.58c-3.44,1.07-8.89.66-8.89.66.32-1.43-1-4.51-2.25-5.17h0a6,6,0,0,0-.62.32l-.09.05a3.94,3.94,0,0,0-.93.72l-.06.06a3,3,0,0,0-.28.37l0,0a2.44,2.44,0,0,0-.21.43s0,0,0,.06a2.88,2.88,0,0,0-.09.4s0,.05,0,.08a2.57,2.57,0,0,0,0,.48v0a2.77,2.77,0,0,0,.09.47l0,.11a5.81,5.81,0,0,0,.49,1.11l.08.13a5.24,5.24,0,0,0,.34.53l.05.09.48.64.12.14c.14.18.3.36.46.55l.14.16c.2.23.42.47.65.71l.12.12.62.63.21.21.83.79C214.41,204.34,221.08,203.42,235.24,199.44Z" style="fill:#b16668;opacity:0.5"></path><path d="M199.65,177.62a18.23,18.23,0,0,0,3.06,9.43c1.55,2.07,9.73,9.31,3.1,11.24-5.4,1.59-9.14-1.86-11.18-5-1.54-2.34-2.32-8-.62-13.67s5.65-7.45,5.65-7.45Z" style="fill:#f28f8f"></path><path d="M303.73,104.32s8.38.45,11.63,3.57,6,12.64,1.23,25.84c-2.39,9.21-16.75,30.54-16.75,30.54a28.34,28.34,0,0,1-19.93-13.51l13.35-26.9S295.46,109.55,303.73,104.32Z" style="fill:#37474f"></path></g><path d="M272.13,176.52c-2.64-9.22-9.22-40.22-11.85-47.12s-9.36-8.11-12.6-8.31c-3.14.5-5.94,7.78-4.75,15.86a44.6,44.6,0,0,0,4.33,13.57l8.25,28.73s-12.1,7.18-19.18,10.35c-1.27.52-4.87,1.43-6.2,1.1-4.94-1.22-6.49.2-9.89-.09-2.65-.24-4.55-1.16-4.88-.59-.42.74-.28,2.37,1.67,3.7a11.41,11.41,0,0,0,6.36,1.71,54.93,54.93,0,0,1-12.73,1.79c-6.94,0-10.51,2.1-5,9.06,3.43,4.36,12.13,4.51,23.13.67,1.51-.52,7-3.27,11.36-4.71h0c12.59-3.46,21.56-6.16,25.09-7.64C274.39,190.77,275,186.57,272.13,176.52Z" style="fill:#ffa8a7"></path><path d="M207.39,197.6l.17-.21c-4.47.59-6.28,2.78-2.69,7.87a8.59,8.59,0,0,0,1.46-.72C212.14,200.89,207.39,197.6,207.39,197.6Z" style="fill:#f28f8f"></path><path d="M190.21,180.36c-1.77,4.47-1.59,11.56-.3,15.94s6.1,8.41,9.2,8.41c6.32,0,10.88-5.51,7-7.64a25.66,25.66,0,0,1-6.28-5.24,9.47,9.47,0,0,1-1.67-2.53c2,1.19,5.78,3.06,7.64,1.07a1,1,0,0,0,.33-.72c0-.5-.59-.76-1.06-1a7.49,7.49,0,0,1-1.68-1c-.52-.4-1-.87-1.5-1.28a32.69,32.69,0,0,0-3.31-2,15.58,15.58,0,0,1-2.55-2.26,4.92,4.92,0,0,1-1.38-1.9,6.3,6.3,0,0,1-.32-1.6S190.21,180.36,190.21,180.36Z" style="fill:#ffa8a7"></path></g><g id="freepik--Hearts--inject-5"><path d="M183.57,95.05a5.56,5.56,0,0,0-2.62-3h0l0,0a5.6,5.6,0,0,0-4.56-.28c-2.66,1-3.76,4.73-3.13,7.43-1.3-2.45-4.59-4.54-7.25-3.54a5.59,5.59,0,0,0-3.25,3.21v0h0a5.57,5.57,0,0,0,0,4c1.55,4.13,6.24,5,10.46,6.49l4.45,1.57,2.32-4.11C182.15,102.9,185.12,99.19,183.57,95.05Z" style="fill:#E83F6F"></path><path d="M340.23,88.88a5.52,5.52,0,0,0,.32-3.9h0v0a5.57,5.57,0,0,0-2.92-3.44c-2.53-1.21-5.95.56-7.43,2.86.85-2.6.08-6.37-2.45-7.58a5.55,5.55,0,0,0-4.51-.11h0a5.47,5.47,0,0,0-2.83,2.7c-1.88,3.93.73,7.85,2.55,11.89l1.92,4.24,4.52-1.16C333.66,93.24,338.35,92.81,340.23,88.88Z" style="fill:#E83F6F"></path></g></svg>